<svg width="4050" height="1349" viewBox="0 0 4050 1349" fill="none" xmlns="http://www.w3.org/2000/svg">
<mask id="mask0_1_2" style="mask-type:luminance" maskUnits="userSpaceOnUse" x="0" y="0" width="4050" height="1349">
<path d="M4050 0H0V1348.62H4050V0Z" fill="white"/>
</mask>
<g mask="url(#mask0_1_2)">
<path d="M4050 0H0V1348.62H4050V0Z" fill="#23272A"/>
<path d="M0 363.582C29.8837 351.825 61.6705 345.647 93.7828 345.357C145.42 345.357 279.07 412.182 392.977 412.182C506.883 412.182 848.602 326.341 1162.89 326.341C1477.17 326.341 1731 447.114 1977.03 447.114C2223.07 447.114 2504.04 209.556 2765.39 209.556C3026.74 209.556 2973.71 281.602 3093.69 281.602C3353.78 281.602 3330.62 261.858 3646.14 261.858C3942.3 261.858 4050 366.652 4050 366.652V1348.62H0V363.582Z" fill="#454FBF"/>
<path d="M4050 1348.62H0V446.861C142.383 446.861 158.203 672.142 433.983 672.142C807.595 672.142 1008.07 476.318 1331.56 476.318C1609.5 476.16 1800.86 591.68 2006.02 591.68C2218.01 591.68 2632.5 209.461 3003.83 209.461C3375.17 209.461 3536.92 380.859 3678.16 380.859C3819.4 380.859 3833.2 371.778 3910.53 371.778C3987.86 371.778 4050 433.097 4050 433.097V1348.62Z" fill="#5865F2"/>
<path d="M2041.1 968.6C2049.8 968.6 2057.9 966.3 2063.7 962.4V947.1C2058.8 950.5 2052 953.1 2044.9 953.1C2030.5 953.1 2021.5 944.2 2021.5 931.5C2021.5 918.8 2030.5 910 2044.7 910C2052.2 910 2058.6 912.7 2063.4 916.2V900.3C2058.3 897.3 2051 894.6 2041.3 894.6C2018.3 894.6 2003.9 910.3 2003.9 932C2003.9 952.2 2017.2 968.6 2041.1 968.6Z" fill="white"/>
<path d="M2121.49 938.7C2121.49 923.1 2112.59 914.5 2097.39 914.5C2080.79 914.5 2070.59 925.4 2070.59 941C2070.59 957.6 2081.99 968.1 2099.99 968.1C2108.69 968.1 2115.49 965.6 2119.29 962.7V951C2115.19 953.8 2109.69 955.5 2103.99 955.5C2094.19 955.5 2088.59 951.6 2086.99 945.3H2121.49V938.7ZM2097.79 926.8C2103.59 926.8 2107.39 930 2107.59 936.3H2087.19C2087.99 930.4 2091.49 926.8 2097.79 926.8Z" fill="white"/>
<path d="M2147.5 966.6V894.6H2131.2V966.6H2147.5Z" fill="white"/>
<path d="M2207.91 938.7C2207.91 923.1 2199.01 914.5 2183.81 914.5C2167.21 914.5 2157.01 925.4 2157.01 941C2157.01 957.6 2168.41 968.1 2186.41 968.1C2195.11 968.1 2201.91 965.6 2205.71 962.7V951C2201.61 953.8 2196.11 955.5 2190.41 955.5C2180.61 955.5 2175.01 951.6 2173.41 945.3H2207.91V938.7ZM2184.21 926.8C2190.01 926.8 2193.81 930 2194.01 936.3H2173.61C2174.41 930.4 2177.91 926.8 2184.21 926.8Z" fill="white"/>
<path d="M2250.13 914.5C2242.33 914.5 2236.53 918.9 2233.73 924V894.6H2217.53V966.6H2233.53V958.9C2236.53 964.4 2242.23 968.1 2249.43 968.1C2263.83 968.1 2272.23 955 2272.23 940.8C2272.23 926.5 2264.43 914.5 2250.13 914.5ZM2244.33 954.5C2237.73 954.5 2233.53 949.3 2233.53 941.6C2233.53 933.7 2237.83 928.3 2244.53 928.3C2251.13 928.3 2255.63 933.6 2255.63 941.4C2255.63 949.2 2250.93 954.5 2244.33 954.5Z" fill="white"/>
<path d="M2310.49 915.1C2304.69 915.1 2300.09 918.4 2297.79 926.5V916H2281.59V966.6H2297.79V944C2297.79 934.9 2301.99 930 2308.89 930C2312.29 930 2314.99 930.8 2316.89 932.1V917.1C2315.29 916 2313.19 915.1 2310.49 915.1Z" fill="white"/>
<path d="M2343.18 914.5C2335.38 914.5 2328.68 916.9 2323.88 920V933.5C2327.68 930.1 2333.08 927.8 2339.48 927.8C2347.48 927.8 2351.98 931.9 2351.98 939.5V941C2349.38 937.8 2345.08 935.8 2339.18 935.8C2328.68 935.8 2321.18 941.9 2321.18 952C2321.18 961.3 2328.08 968.1 2337.88 968.1C2344.18 968.1 2349.28 965.3 2351.98 960.7V966.6H2367.88V937.9C2367.88 923.6 2359.18 914.5 2343.18 914.5ZM2344.08 957.7C2339.08 957.7 2336.18 955 2336.18 951C2336.18 947.1 2339.18 944.4 2344.18 944.4C2349.08 944.4 2352.28 947.2 2352.28 950.9C2352.28 954.8 2349.08 957.7 2344.08 957.7Z" fill="white"/>
<path d="M2401.76 916V899L2385.56 902.5V916H2373.96V929.2H2385.56V966.6H2401.76V929.2H2414.46V916H2401.76Z" fill="white"/>
<path d="M2430.22 910.3C2435.32 910.3 2439.12 906.8 2439.12 901.8C2439.12 896.9 2435.52 893.5 2430.22 893.5C2424.82 893.5 2421.12 896.9 2421.12 901.8C2421.12 906.8 2425.02 910.3 2430.22 910.3ZM2438.32 966.6V916H2422.02V966.6H2438.32Z" fill="white"/>
<path d="M2482.63 914.5C2474.63 914.5 2469.23 918.2 2466.63 923.6V916H2450.63V966.6H2466.83V939.5C2466.83 932.6 2470.03 928.1 2476.03 928.1C2481.83 928.1 2484.13 931.7 2484.13 938.5V966.6H2500.33V934.9C2500.33 922.1 2493.63 914.5 2482.63 914.5Z" fill="white"/>
<path d="M2547.36 924.1C2544.56 917.8 2539.16 914.5 2532.26 914.5C2518.16 914.5 2509.36 926 2509.36 940.2C2509.36 954.3 2517.76 964.7 2530.96 964.7C2538.46 964.7 2544.16 961.3 2547.26 955.2V959.8C2547.26 968.6 2542.36 974.7 2532.26 974.7C2525.46 974.7 2519.26 972.6 2514.76 968.8V982.3C2519.86 985.9 2526.66 987.4 2533.36 987.4C2550.76 987.4 2563.26 978.4 2563.26 959.7V916H2547.36V924.1ZM2536.46 952.1C2530.16 952.1 2525.96 947.5 2525.96 940.2C2525.96 932.7 2530.16 927.6 2536.66 927.6C2542.96 927.6 2547.26 932.4 2547.26 939.9C2547.26 947.3 2542.96 952.1 2536.46 952.1Z" fill="white"/>
<path d="M2629.03 966.6C2652.73 966.6 2665.03 951.6 2665.03 931C2665.03 910.6 2653.23 896.6 2630.33 896.6H2602.53V966.6H2629.03ZM2619.33 911.6H2629.43C2641.63 911.6 2647.33 919.2 2647.33 931.3C2647.33 943.4 2641.23 951.6 2628.83 951.6H2619.33V911.6Z" fill="white"/>
<path d="M2682.86 910.3C2687.96 910.3 2691.76 906.8 2691.76 901.8C2691.76 896.9 2688.16 893.5 2682.86 893.5C2677.46 893.5 2673.76 896.9 2673.76 901.8C2673.76 906.8 2677.66 910.3 2682.86 910.3ZM2690.96 966.6V916H2674.66V966.6H2690.96Z" fill="white"/>
<path d="M2721.47 968.1C2734.87 968.1 2743.47 961.1 2743.47 950.9C2743.47 943.4 2739.47 938.1 2729.97 936L2722.77 934.4C2719.07 933.5 2717.67 932.2 2717.67 930.2C2717.67 927.9 2719.87 926.5 2724.37 926.5C2729.97 926.5 2735.77 928.2 2740.67 931.5V919.4C2736.57 916.8 2730.87 914.5 2722.77 914.5C2709.37 914.5 2701.17 921 2701.17 930.8C2701.17 938.4 2705.67 942.9 2714.47 945.1L2721.47 946.9C2725.07 947.9 2726.57 949.3 2726.57 951.4C2726.57 954.5 2724.07 956 2719.77 956C2714.17 956 2706.67 953.3 2701.47 949.3V962.1C2707.37 966.1 2714.17 968.1 2721.47 968.1Z" fill="white"/>
<path d="M2778.18 968.2C2784.58 968.2 2790.58 966.7 2795.48 963.7V949.9C2792.38 952.2 2787.48 954.3 2781.78 954.3C2771.78 954.3 2766.48 948.8 2766.48 941.2C2766.48 933.5 2771.98 928.4 2781.28 928.4C2786.98 928.4 2791.38 929.9 2795.08 932.5V918.2C2791.18 916.1 2785.78 914.4 2778.58 914.4C2760.78 914.4 2749.88 925.5 2749.88 941.3C2749.88 956.9 2760.78 968.2 2778.18 968.2Z" fill="white"/>
<path d="M2829.82 968.1C2845.42 968.1 2857.32 957.6 2857.32 941.5C2857.32 925.1 2845.62 914.5 2829.82 914.5C2814.22 914.5 2802.62 925.1 2802.62 941.5C2802.62 957.6 2814.42 968.1 2829.82 968.1ZM2829.82 954.4C2823.22 954.4 2819.22 949.2 2819.22 941.4C2819.22 933.5 2823.12 928.2 2829.82 928.2C2836.62 928.2 2840.72 933.5 2840.72 941.4C2840.72 949.2 2836.62 954.4 2829.82 954.4Z" fill="white"/>
<path d="M2895.65 915.1C2889.85 915.1 2885.25 918.4 2882.95 926.5V916H2866.75V966.6H2882.95V944C2882.95 934.9 2887.15 930 2894.05 930C2897.45 930 2900.15 930.8 2902.05 932.1V917.1C2900.45 916 2898.35 915.1 2895.65 915.1Z" fill="white"/>
<path d="M2944.73 923.3C2941.63 917.7 2936.43 914.5 2929.73 914.5C2914.63 914.5 2906.33 927.3 2906.33 941.3C2906.33 956.2 2914.23 968.1 2928.43 968.1C2936.73 968.1 2942.43 963.4 2945.03 958.1V966.6H2960.93V894.6H2944.73V923.3ZM2933.83 954.4C2927.43 954.4 2922.93 949.5 2922.93 941.5C2922.93 933.4 2927.33 928.2 2934.03 928.2C2940.73 928.2 2944.93 933.5 2944.93 941.3C2944.93 949.1 2940.53 954.4 2933.83 954.4Z" fill="white"/>
<path d="M2981.79 921.8L2992.99 892.6H2976.89L2970.29 921.8H2981.79Z" fill="white"/>
<path d="M3013.27 968.1C3026.67 968.1 3035.27 961.1 3035.27 950.9C3035.27 943.4 3031.27 938.1 3021.77 936L3014.57 934.4C3010.87 933.5 3009.47 932.2 3009.47 930.2C3009.47 927.9 3011.67 926.5 3016.17 926.5C3021.77 926.5 3027.57 928.2 3032.47 931.5V919.4C3028.37 916.8 3022.67 914.5 3014.57 914.5C3001.17 914.5 2992.97 921 2992.97 930.8C2992.97 938.4 2997.47 942.9 3006.27 945.1L3013.27 946.9C3016.87 947.9 3018.37 949.3 3018.37 951.4C3018.37 954.5 3015.87 956 3011.57 956C3005.97 956 2998.47 953.3 2993.27 949.3V962.1C2999.17 966.1 3005.97 968.1 3013.27 968.1Z" fill="white"/>
<path d="M3116.07 929.3C3123.07 927.5 3126.97 922.5 3126.97 914.9C3126.97 904.4 3119.57 896.6 3105.27 896.6H3074.07V966.6H3104.77C3120.77 966.6 3129.37 958.1 3129.37 946.4C3129.37 938 3124.87 931.5 3116.07 929.3ZM3101.47 910.1C3107.17 910.1 3110.17 913.2 3110.17 918.1C3110.17 922.7 3107.47 925.9 3101.67 925.9H3090.87V910.1H3101.47ZM3090.87 953.4V936.3H3102.27C3108.67 936.3 3111.87 939.8 3111.87 944.8C3111.87 950 3108.57 953.4 3101.67 953.4H3090.87Z" fill="white"/>
<path d="M3147.17 910.3C3152.27 910.3 3156.07 906.8 3156.07 901.8C3156.07 896.9 3152.47 893.5 3147.17 893.5C3141.77 893.5 3138.07 896.9 3138.07 901.8C3138.07 906.8 3141.97 910.3 3147.17 910.3ZM3155.27 966.6V916H3138.97V966.6H3155.27Z" fill="white"/>
<path d="M3196.48 915.1C3190.68 915.1 3186.08 918.4 3183.78 926.5V916H3167.58V966.6H3183.78V944C3183.78 934.9 3187.98 930 3194.88 930C3198.28 930 3200.98 930.8 3202.88 932.1V917.1C3201.28 916 3199.18 915.1 3196.48 915.1Z" fill="white"/>
<path d="M3233.65 916V899L3217.45 902.5V916H3205.85V929.2H3217.45V966.6H3233.65V929.2H3246.35V916H3233.65Z" fill="white"/>
<path d="M3285.81 914.5C3278.01 914.5 3272.81 918 3270.01 923.1V894.6H3253.81V966.6H3270.01V939.5C3270.01 932.6 3273.21 928.1 3279.21 928.1C3285.01 928.1 3287.31 931.7 3287.31 938.5V966.6H3303.51V934.9C3303.51 921.9 3296.81 914.5 3285.81 914.5Z" fill="white"/>
<path d="M3350.94 923.3C3347.84 917.7 3342.64 914.5 3335.94 914.5C3320.84 914.5 3312.54 927.3 3312.54 941.3C3312.54 956.2 3320.44 968.1 3334.64 968.1C3342.94 968.1 3348.64 963.4 3351.24 958.1V966.6H3367.14V894.6H3350.94V923.3ZM3340.04 954.4C3333.64 954.4 3329.14 949.5 3329.14 941.5C3329.14 933.4 3333.54 928.2 3340.24 928.2C3346.94 928.2 3351.14 933.5 3351.14 941.3C3351.14 949.1 3346.74 954.4 3340.04 954.4Z" fill="white"/>
<path d="M3398.7 914.5C3390.9 914.5 3384.2 916.9 3379.4 920V933.5C3383.2 930.1 3388.6 927.8 3395 927.8C3403 927.8 3407.5 931.9 3407.5 939.5V941C3404.9 937.8 3400.6 935.8 3394.7 935.8C3384.2 935.8 3376.7 941.9 3376.7 952C3376.7 961.3 3383.6 968.1 3393.4 968.1C3399.7 968.1 3404.8 965.3 3407.5 960.7V966.6H3423.4V937.9C3423.4 923.6 3414.7 914.5 3398.7 914.5ZM3399.6 957.7C3394.6 957.7 3391.7 955 3391.7 951C3391.7 947.1 3394.7 944.4 3399.7 944.4C3404.6 944.4 3407.8 947.2 3407.8 950.9C3407.8 954.8 3404.6 957.7 3399.6 957.7Z" fill="white"/>
<path d="M3455.03 944.4L3444.63 916H3427.33L3446.43 960.9L3434.63 985.6H3452.33L3483.63 916H3466.33L3455.03 944.4Z" fill="white"/>
<path d="M3507.63 944.2V896.6H3491.33V944.2H3507.63ZM3499.63 968.1C3505.33 968.1 3509.33 964 3509.33 958.7C3509.33 953.3 3505.33 949.3 3499.63 949.3C3493.93 949.3 3489.83 953.3 3489.83 958.7C3489.83 964 3493.93 968.1 3499.63 968.1Z" fill="white"/>
<path d="M2623.7 1033.5C2615.5 1033.5 2609.8 1038.2 2607.1 1043.5V1035H2591.1V1104.6H2607.3V1079.3C2610.4 1084 2615.9 1087.1 2622.9 1087.1C2636 1087.1 2645.8 1076.2 2645.8 1059.8C2645.8 1044.5 2636.9 1033.5 2623.7 1033.5ZM2617.9 1073.5C2611.3 1073.5 2607.1 1068.3 2607.1 1060.6C2607.1 1052.7 2611.4 1047.3 2618.1 1047.3C2624.7 1047.3 2629.2 1052.7 2629.2 1060.4C2629.2 1068.1 2624.7 1073.5 2617.9 1073.5Z" fill="white"/>
<path d="M2684.06 1034.1C2678.26 1034.1 2673.66 1037.4 2671.36 1045.5V1035H2655.16V1085.6H2671.36V1063C2671.36 1053.9 2675.56 1049 2682.46 1049C2685.86 1049 2688.56 1049.8 2690.46 1051.1V1036.1C2688.86 1035 2686.76 1034.1 2684.06 1034.1Z" fill="white"/>
<path d="M2721.75 1087.1C2737.35 1087.1 2749.25 1076.6 2749.25 1060.5C2749.25 1044.1 2737.55 1033.5 2721.75 1033.5C2706.15 1033.5 2694.55 1044.1 2694.55 1060.5C2694.55 1076.6 2706.35 1087.1 2721.75 1087.1ZM2721.75 1073.4C2715.15 1073.4 2711.15 1068.2 2711.15 1060.4C2711.15 1052.5 2715.05 1047.2 2721.75 1047.2C2728.55 1047.2 2732.65 1052.5 2732.65 1060.4C2732.65 1068.2 2728.55 1073.4 2721.75 1073.4Z" fill="white"/>
<path d="M2767.58 1029.3C2772.68 1029.3 2776.48 1025.8 2776.48 1020.8C2776.48 1015.9 2772.88 1012.5 2767.58 1012.5C2762.28 1012.5 2758.58 1015.9 2758.58 1020.8C2758.58 1025.8 2762.48 1029.3 2767.58 1029.3ZM2757.58 1106.4C2768.38 1106.4 2775.68 1099.9 2775.68 1089.5V1035H2759.48V1086.6C2759.48 1091.6 2757.18 1093.6 2753.78 1093.6C2750.88 1093.6 2748.48 1092.6 2747.08 1091.5V1103.3C2749.28 1104.9 2752.88 1106.4 2757.58 1106.4Z" fill="white"/>
<path d="M2836.17 1057.7C2836.17 1042.1 2827.27 1033.5 2812.07 1033.5C2795.47 1033.5 2785.27 1044.4 2785.27 1060C2785.27 1076.6 2796.67 1087.1 2814.67 1087.1C2823.37 1087.1 2830.17 1084.6 2833.97 1081.7V1070C2829.87 1072.8 2824.37 1074.5 2818.67 1074.5C2808.87 1074.5 2803.27 1070.6 2801.67 1064.3H2836.17V1057.7ZM2812.47 1045.8C2818.27 1045.8 2822.07 1049 2822.27 1055.3H2801.87C2802.67 1049.4 2806.17 1045.8 2812.47 1045.8Z" fill="white"/>
<path d="M2871.29 1087.2C2877.69 1087.2 2883.69 1085.7 2888.59 1082.7V1068.9C2885.49 1071.2 2880.59 1073.3 2874.89 1073.3C2864.89 1073.3 2859.59 1067.8 2859.59 1060.2C2859.59 1052.5 2865.09 1047.4 2874.39 1047.4C2880.09 1047.4 2884.49 1048.9 2888.19 1051.5V1037.2C2884.29 1035.1 2878.89 1033.4 2871.69 1033.4C2853.89 1033.4 2842.99 1044.5 2842.99 1060.3C2842.99 1075.9 2853.89 1087.2 2871.29 1087.2Z" fill="white"/>
<path d="M2921.62 1035V1018L2905.42 1021.5V1035H2893.82V1048.2H2905.42V1085.6H2921.62V1048.2H2934.32V1035H2921.62Z" fill="white"/>
<path d="M2974.39 1033.5C2966.59 1033.5 2960.79 1037.9 2957.99 1043V1013.6H2941.79V1085.6H2957.79V1077.9C2960.79 1083.4 2966.49 1087.1 2973.69 1087.1C2988.09 1087.1 2996.49 1074 2996.49 1059.8C2996.49 1045.5 2988.69 1033.5 2974.39 1033.5ZM2968.59 1073.5C2961.99 1073.5 2957.79 1068.3 2957.79 1060.6C2957.79 1052.7 2962.09 1047.3 2968.79 1047.3C2975.39 1047.3 2979.89 1052.6 2979.89 1060.4C2979.89 1068.2 2975.19 1073.5 2968.59 1073.5Z" fill="white"/>
<path d="M3022.25 1085.6V1013.6H3005.95V1085.6H3022.25Z" fill="white"/>
<path d="M3067.26 1061.5C3067.26 1069.1 3064.36 1073.7 3058.46 1073.7C3052.76 1073.7 3050.26 1069.9 3050.26 1063.1V1035H3034.06V1066.6C3034.06 1079.1 3040.06 1087 3052.16 1087C3059.46 1087 3065.06 1083.1 3067.66 1077.3V1085.6H3083.56V1035H3067.26V1061.5Z" fill="white"/>
<path d="M3124.69 1034.1C3118.89 1034.1 3114.29 1037.4 3111.99 1045.5V1035H3095.79V1085.6H3111.99V1063C3111.99 1053.9 3116.19 1049 3123.09 1049C3126.49 1049 3129.19 1049.8 3131.09 1051.1V1036.1C3129.49 1035 3127.39 1034.1 3124.69 1034.1Z" fill="white"/>
<path d="M3171.36 1033.5C3163.16 1033.5 3157.46 1038.2 3154.76 1043.5V1035H3138.76V1104.6H3154.96V1079.3C3158.06 1084 3163.56 1087.1 3170.56 1087.1C3183.66 1087.1 3193.46 1076.2 3193.46 1059.8C3193.46 1044.5 3184.56 1033.5 3171.36 1033.5ZM3165.56 1073.5C3158.96 1073.5 3154.76 1068.3 3154.76 1060.6C3154.76 1052.7 3159.06 1047.3 3165.76 1047.3C3172.36 1047.3 3176.86 1052.7 3176.86 1060.4C3176.86 1068.1 3172.36 1073.5 3165.56 1073.5Z" fill="white"/>
<path d="M3219.22 1085.6V1013.6H3202.92V1085.6H3219.22Z" fill="white"/>
<path d="M3279.63 1057.7C3279.63 1042.1 3270.73 1033.5 3255.53 1033.5C3238.93 1033.5 3228.73 1044.4 3228.73 1060C3228.73 1076.6 3240.13 1087.1 3258.13 1087.1C3266.83 1087.1 3273.63 1084.6 3277.43 1081.7V1070C3273.33 1072.8 3267.83 1074.5 3262.13 1074.5C3252.33 1074.5 3246.73 1070.6 3245.13 1064.3H3279.63V1057.7ZM3255.93 1045.8C3261.73 1045.8 3265.53 1049 3265.73 1055.3H3245.33C3246.13 1049.4 3249.63 1045.8 3255.93 1045.8Z" fill="white"/>
<path d="M3296.95 1087.1C3302.55 1087.1 3306.65 1082.9 3306.65 1077.3C3306.65 1071.7 3302.55 1067.7 3296.95 1067.8C3291.25 1067.7 3286.95 1071.8 3286.95 1077.3C3286.95 1082.8 3291.25 1087.1 3296.95 1087.1Z" fill="white"/>
<path d="M3341.6 1087.2C3348 1087.2 3354 1085.7 3358.9 1082.7V1068.9C3355.8 1071.2 3350.9 1073.3 3345.2 1073.3C3335.2 1073.3 3329.9 1067.8 3329.9 1060.2C3329.9 1052.5 3335.4 1047.4 3344.7 1047.4C3350.4 1047.4 3354.8 1048.9 3358.5 1051.5V1037.2C3354.6 1035.1 3349.2 1033.4 3342 1033.4C3324.2 1033.4 3313.3 1044.5 3313.3 1060.3C3313.3 1075.9 3324.2 1087.2 3341.6 1087.2Z" fill="white"/>
<path d="M3393.24 1087.1C3408.84 1087.1 3420.74 1076.6 3420.74 1060.5C3420.74 1044.1 3409.04 1033.5 3393.24 1033.5C3377.64 1033.5 3366.04 1044.1 3366.04 1060.5C3366.04 1076.6 3377.84 1087.1 3393.24 1087.1ZM3393.24 1073.4C3386.64 1073.4 3382.64 1068.2 3382.64 1060.4C3382.64 1052.5 3386.54 1047.2 3393.24 1047.2C3400.04 1047.2 3404.14 1052.5 3404.14 1060.4C3404.14 1068.2 3400.04 1073.4 3393.24 1073.4Z" fill="white"/>
<path d="M3491.36 1033.5C3484.26 1033.5 3478.86 1036.9 3475.56 1042.6C3472.96 1037 3467.96 1033.5 3461.06 1033.5C3453.96 1033.5 3448.96 1037.1 3446.16 1043.1V1035H3430.16V1085.6H3446.36V1057C3446.36 1051.3 3449.46 1047.1 3454.36 1047.1C3459.16 1047.1 3461.56 1050.6 3461.56 1055.9V1085.6H3477.56V1055.6C3477.66 1050.8 3480.66 1047.1 3485.46 1047.1C3490.36 1047.1 3492.66 1050.6 3492.66 1056.3V1085.6H3508.86V1053.2C3508.86 1040.9 3502.26 1033.5 3491.36 1033.5Z" fill="white"/>
<path d="M3814.84 756.559H3789.91C3769.41 756.559 3752.76 742.163 3752.76 724.444L3768.59 534.189C3768.59 521.723 3741.12 502.548 3726.69 502.548H3687.68C3673.28 502.548 3645.79 521.533 3645.79 534.189L3661.61 724.444C3661.61 742.163 3645 756.559 3624.49 756.559H3599.53C3581.62 756.559 3567.1 769.216 3567.1 784.561V826.643C3567.25 828.513 3568.13 830.247 3569.55 831.472C3570.97 832.697 3572.82 833.315 3574.69 833.193H3839.74C3841.62 833.324 3843.47 832.709 3844.89 831.482C3846.31 830.255 3847.19 828.516 3847.34 826.643V784.688C3847.28 769.121 3832.75 756.559 3814.84 756.559ZM3723.66 562.064C3723.44 564.962 3722.09 567.657 3719.9 569.561C3717.71 571.465 3714.85 572.421 3711.95 572.221H3702.46C3699.56 572.413 3696.71 571.453 3694.51 569.551C3692.32 567.649 3690.97 564.959 3690.75 562.064V540.707C3690.98 537.824 3692.34 535.149 3694.53 533.261C3696.72 531.372 3699.57 530.421 3702.46 530.614H3711.95C3714.84 530.413 3717.69 531.361 3719.88 533.251C3722.07 535.141 3723.43 537.821 3723.66 540.707V562.064Z" fill="white"/>
<path d="M3856.55 965.514V1078.06C3856.55 1087.87 3852.65 1097.28 3845.71 1104.21C3838.78 1111.15 3829.37 1115.05 3819.56 1115.05H3596.05C3591.19 1115.05 3586.39 1114.09 3581.9 1112.23C3577.41 1110.37 3573.34 1107.65 3569.91 1104.21C3566.47 1100.78 3563.75 1096.7 3561.9 1092.21C3560.04 1087.72 3559.09 1082.92 3559.09 1078.06V1002.31V925.837C3559.09 916.313 3562.88 907.178 3569.61 900.443C3576.35 893.709 3585.48 889.925 3595.01 889.925H3600.23C3609.75 889.925 3618.89 893.709 3625.62 900.443C3632.36 907.178 3636.14 916.313 3636.14 925.837V988.644C3636.15 992.266 3637.59 995.738 3640.15 998.3C3642.71 1000.86 3646.18 1002.3 3649.81 1002.31C3653.43 1002.31 3656.91 1000.87 3659.47 998.309C3662.04 995.746 3663.48 992.269 3663.48 988.644V906.188C3663.48 896.669 3667.26 887.54 3673.98 880.806C3680.71 874.072 3689.84 870.285 3699.36 870.276H3714.2C3718.91 870.276 3723.58 871.205 3727.94 873.01C3732.3 874.815 3736.26 877.46 3739.59 880.795C3742.92 884.129 3745.57 888.088 3747.37 892.445C3749.18 896.802 3750.11 901.472 3750.11 906.188V984.973C3750.11 987.25 3750.56 989.505 3751.43 991.609C3752.3 993.712 3753.58 995.624 3755.19 997.234C3756.8 998.844 3758.71 1000.12 3760.81 1000.99C3762.92 1001.86 3765.17 1002.31 3767.45 1002.31C3772.04 1002.3 3776.45 1000.47 3779.7 997.225C3782.95 993.975 3784.78 989.569 3784.79 984.973V966.369C3784.7 957.167 3788.09 948.273 3794.29 941.472C3800.49 934.67 3809.03 930.464 3818.2 929.697C3823.11 929.359 3828.04 930.034 3832.68 931.681C3837.32 933.327 3841.57 935.91 3845.17 939.269C3848.77 942.628 3851.64 946.691 3853.6 951.206C3855.56 955.721 3856.58 960.591 3856.58 965.514H3856.55Z" fill="white"/>
<path d="M3594.98 881.982H3600.2C3611.83 881.982 3622.99 886.602 3631.22 894.825C3639.45 903.048 3644.07 914.202 3644.08 925.836V988.643C3644.19 990.084 3644.84 991.431 3645.9 992.415C3646.96 993.398 3648.35 993.944 3649.79 993.944C3651.24 993.944 3652.63 993.398 3653.69 992.415C3654.75 991.431 3655.4 990.084 3655.5 988.643V906.187C3655.5 894.559 3660.12 883.406 3668.34 875.178C3676.55 866.95 3687.7 862.319 3699.33 862.302H3714.17C3725.8 862.319 3736.95 866.949 3745.17 875.176C3753.39 883.403 3758.01 894.556 3758.02 906.187V984.972C3758.37 987.213 3759.5 989.256 3761.22 990.732C3762.94 992.208 3765.13 993.019 3767.4 993.019C3769.67 993.019 3771.86 992.208 3773.58 990.732C3775.3 989.256 3776.44 987.213 3776.78 984.972V966.368C3776.68 955.144 3780.83 944.299 3788.42 936.024C3796 927.748 3806.44 922.66 3817.63 921.786C3818.64 921.786 3819.66 921.786 3820.8 921.786C3830.44 921.78 3839.81 924.974 3847.44 930.867V847.621C3847.29 845.748 3846.41 844.009 3844.99 842.782C3843.57 841.555 3841.72 840.94 3839.84 841.071H3574.79C3572.92 840.949 3571.07 841.566 3569.65 842.792C3568.23 844.017 3567.35 845.751 3567.2 847.621V891.918C3575.02 885.481 3584.84 881.968 3594.98 881.982Z" fill="#454FBF"/>
<path d="M3515.29 767.8C3515.29 731 3493.29 705.8 3442.89 705.8C3394.09 705.8 3365.69 731.8 3365.69 768.6C3365.69 807.2 3396.49 834 3450.49 834C3475.49 834 3497.89 828 3511.29 820.2V782.4C3500.09 788.6 3486.49 792.8 3468.49 792.8C3445.69 792.8 3432.49 787.4 3426.29 778.6H3515.29V767.8ZM3446.09 743.2C3458.89 743.2 3466.09 748.8 3467.69 757.8H3424.09C3425.89 748.8 3433.49 743.2 3446.09 743.2Z" fill="white"/>
<path d="M3353.01 829.6V685.6H3290.61V829.6H3353.01Z" fill="white"/>
<path d="M3221.98 705.8C3194.78 705.8 3177.78 717.8 3170.98 741.8V711.2H3108.58V865H3170.98V803.8C3179.78 825.2 3197.18 834 3220.78 834C3255.38 834 3277.58 808 3277.58 769.8C3277.58 733.6 3256.98 705.8 3221.98 705.8ZM3191.38 790.6C3178.38 790.6 3170.78 782.4 3170.78 770C3170.78 757.8 3178.58 749.4 3191.58 749.4C3204.38 749.4 3212.78 757.6 3212.78 769.8C3212.78 782.2 3204.38 790.6 3191.38 790.6Z" fill="white"/>
<path d="M3077.75 708C3055.75 708 3043.35 720.6 3037.75 749.8V711.2H2976.75V829.6H3039.15V802.6C3039.15 773.2 3052.75 761.6 3075.95 761.6C3086.15 761.6 3093.75 764 3097.55 766.2V712.4C3093.95 710.6 3086.55 708 3077.75 708Z" fill="white"/>
<path d="M2896.76 769.2C2896.76 783.8 2891.16 791.4 2878.96 791.4C2866.76 791.4 2862.36 783.8 2862.36 769.6V711.2H2799.96V783.4C2799.96 815.6 2816.36 833.8 2848.56 833.8C2873.36 833.8 2889.56 822.4 2896.76 802.2V829.6H2958.96V711.2H2896.76V769.2Z" fill="white"/>
<path d="M2783.29 829.6V685.6H2720.89V829.6H2783.29Z" fill="white"/>
<path d="M2677.03 752C2693.83 748.4 2701.83 738.8 2701.83 725.2C2701.83 704.8 2683.23 689.6 2643.83 689.6H2541.83V829.6H2640.63C2688.23 829.6 2707.83 811.4 2707.83 786C2707.83 768.8 2698.63 756.2 2677.03 752ZM2625.03 725.2C2634.03 725.2 2638.23 728.8 2638.23 735.8C2638.23 742.2 2633.83 746 2625.03 746H2603.83V725.2H2625.03ZM2603.83 794.4V770.6H2627.03C2637.83 770.6 2642.83 775 2642.83 782C2642.83 789.8 2637.43 794.4 2625.63 794.4H2603.83Z" fill="white"/>
<path d="M2445.8 711.2V684.4L2383.4 692V711.2H2351V753H2383.4V829.6H2445.8V753H2480.4V711.2H2445.8Z" fill="white"/>
<path d="M2287.33 834C2308.53 834 2327.73 829.6 2342.53 821.8V782.4C2333.93 786.4 2321.53 790.2 2307.93 790.2C2282.53 790.2 2271.53 780.8 2271.53 769.8C2271.53 758.2 2284.33 749.8 2308.13 749.8C2322.13 749.8 2334.53 753.8 2342.33 758.2V717.6C2329.93 710.8 2312.73 705.8 2288.13 705.8C2233.73 705.8 2205.73 733.4 2205.73 769.2C2205.73 804.8 2232.13 834 2287.33 834Z" fill="white"/>
<path d="M2197.32 767.8C2197.32 731 2175.32 705.8 2124.92 705.8C2076.12 705.8 2047.72 731.8 2047.72 768.6C2047.72 807.2 2078.52 834 2132.52 834C2157.52 834 2179.92 828 2193.32 820.2V782.4C2182.12 788.6 2168.52 792.8 2150.52 792.8C2127.72 792.8 2114.52 787.4 2108.32 778.6H2197.32V767.8ZM2128.12 743.2C2140.92 743.2 2148.12 748.8 2149.72 757.8H2106.12C2107.92 748.8 2115.52 743.2 2128.12 743.2Z" fill="white"/>
<path d="M2004.47 719.8C2023.87 719.8 2037.67 710.6 2037.67 698C2037.67 685.2 2023.87 676 2004.47 676C1984.47 676 1970.27 685.2 1970.27 698C1970.27 710.6 1984.47 719.8 2004.47 719.8ZM1978.87 871.6C2016.07 871.6 2035.07 856 2035.07 827.6V725.2H1972.87V823.6C1972.87 832.2 1968.47 836 1960.47 836C1956.27 836 1953.27 835 1950.47 833.6C1947.67 832.2 1950.47 866.4 1950.47 866.4C1956.07 869.2 1966.47 871.6 1978.87 871.6Z" fill="white"/>
<path d="M1875.65 834C1929.65 834 1958.85 805.2 1958.85 768.6C1958.85 732 1929.45 705.8 1875.65 705.8C1821.45 705.8 1792.25 732.2 1792.25 768.6C1792.25 805 1821.45 834 1875.65 834ZM1875.65 791.4C1862.05 791.4 1854.25 783.2 1854.25 769.8C1854.25 756.6 1862.05 748.6 1875.65 748.6C1888.85 748.6 1896.65 756.6 1896.65 769.8C1896.65 783.2 1888.85 791.4 1875.65 791.4Z" fill="white"/>
<path d="M1767.2 708C1745.2 708 1732.8 720.6 1727.2 749.8V711.2H1666.2V829.6H1728.6V802.6C1728.6 773.2 1742.2 761.6 1765.4 761.6C1775.6 761.6 1783.2 764 1787 766.2V712.4C1783.4 710.6 1776 708 1767.2 708Z" fill="white"/>
<path d="M1484.6 689.4V829.6H1548V796.8H1584.6C1630.8 796.8 1655 774.2 1655 743.2C1655 711.2 1634.6 689.4 1593.8 689.4H1484.6ZM1548 762.2V729.2H1569.6C1582.8 729.2 1590 735.4 1590 745.6C1590 755.8 1582.2 762.2 1566.8 762.2H1548Z" fill="white"/>
</g>
</svg>
