<?xml version="1.0" encoding="UTF-8"?>
<svg width="95px" height="195px" viewBox="0 0 95 195" version="1.1" xmlns="http://www.w3.org/2000/svg" xmlns:xlink="http://www.w3.org/1999/xlink">
    <title>Brush</title>
    <g id="Page-1" stroke="none" stroke-width="1" fill="none" fill-rule="evenodd">
        <g id="Brush" transform="translate(0.849996, 0.830000)" fill-rule="nonzero">
            <path id="handle" fill="#FFFFFF" d="M80.8300043,80.28 L72.9500043,80.28 C66.4700043,80.28 61.2100043,75.73 61.2100043,70.13 L66.2100043,10 C66.2100043,6.06 57.5300043,-7.10542736e-15 52.9700043,-7.10542736e-15 L40.6400043,-7.10542736e-15 C36.0900043,-7.10542736e-15 27.4000043,6 27.4000043,10 L32.4000043,70.13 C32.4000043,75.73 27.1500043,80.28 20.6700043,80.28 L12.7800043,80.28 C7.12000429,80.28 2.53000429,84.28 2.53000429,89.13 L2.53000429,102.43 C2.63107007,103.659327 3.69916332,104.580557 4.93000429,104.5 L88.7000043,104.5 C89.9326958,104.586103 91.0041522,103.661972 91.1000043,102.43 L91.1000043,89.17 C91.0800043,84.25 86.4900043,80.28 80.8300043,80.28 Z M52.0100043,18.81 C51.8713247,20.7164577 50.2169543,22.1517358 48.3100043,22.02 L45.3100043,22.02 C43.4049324,22.1461344 41.7539641,20.7138078 41.6100043,18.81 L41.6100043,12.06 C41.7642986,10.1641903 43.4121383,8.74348526 45.3100043,8.87 L48.3100043,8.87 C50.2097207,8.73793419 51.8609281,10.1615427 52.0100043,12.06 L52.0100043,18.81 Z"></path>
            <path id="paint" fill="#FFFFFF" d="M94.0100043,146.32 L94.0100043,181.89 C94.0100043,188.346209 88.776213,193.58 82.3200043,193.58 L11.6800043,193.58 C8.5805423,193.580001 5.60817212,192.348061 3.41745954,190.155472 C1.22674695,187.962884 -0.00264936196,184.989461 4.28700662e-06,181.89 L4.28700662e-06,157.95 L4.28700662e-06,157.95 L4.28700662e-06,133.78 C4.28700662e-06,127.511568 5.08157238,122.43 11.3500043,122.43 L13.0000043,122.43 C19.2684362,122.43 24.3500043,127.511568 24.3500043,133.78 L24.3500043,153.63 C24.3555028,156.013589 26.2864154,157.944502 28.6700043,157.95 L28.6700043,157.95 C31.0558744,157.95 32.9900043,156.01587 32.9900043,153.63 L32.9900043,127.57 C32.9900019,121.305471 38.065478,116.225519 44.3300043,116.22 L49.0200043,116.22 C52.0302114,116.22 54.9171284,117.4158 57.0456663,119.544338 C59.1742041,121.672876 60.3700043,124.559793 60.3700043,127.57 L60.3700043,152.47 C60.3700043,153.923386 60.9473598,155.317246 61.9750591,156.344945 C63.0027585,157.372645 64.3966179,157.95 65.8500043,157.95 L65.8500043,157.95 C68.8742421,157.944496 71.3245007,155.494238 71.3300043,152.47 L71.3300043,146.59 C71.2723875,140.557636 75.8783252,135.502445 81.8900043,135 C85.0277105,134.783858 88.1144307,135.879382 90.4138294,138.025234 C92.713228,140.171087 94.0191268,143.174858 94.0200043,146.32 L94.0100043,146.32 Z"></path>
            <path id="brush" fill="#454FBF" d="M11.3400043,119.92 L12.9900043,119.92 C20.6462902,119.919998 26.8544843,126.123716 26.8600043,133.78 L26.8600043,153.63 C26.9303812,154.574862 27.7175251,155.305557 28.6650043,155.305557 C29.6124834,155.305557 30.3996274,154.574862 30.4700043,153.63 L30.4700043,127.57 C30.4699963,119.917614 36.6676265,113.711034 44.3200043,113.7 L49.0100043,113.7 C56.6640026,113.711027 62.8644978,119.915996 62.8700043,127.57 L62.8700043,152.47 C63.0954827,153.933155 64.3545777,155.013081 65.8350043,155.013081 C67.3154309,155.013081 68.5745259,153.933155 68.8000043,152.47 L68.8000043,146.59 C68.7303704,139.229879 74.3718705,133.072734 81.7100043,132.5 C82.0300043,132.5 82.3500043,132.5 82.7100043,132.5 C85.7570225,132.498015 88.7185198,133.507457 91.1300043,135.37 L91.1300043,109.06 C91.0341522,107.828028 89.9626958,106.903897 88.7300043,106.99 L4.96000429,106.99 C3.72916332,106.909443 2.66107007,107.830673 2.56000429,109.06 L2.56000429,123.06 C5.03327988,121.025584 8.13751783,119.915412 11.3400043,119.92 L11.3400043,119.92 Z"></path>
        </g>
    </g>
</svg>
