<?xml version="1.0" encoding="UTF-8"?>
<svg width="95" height="195" viewBox="0 0 95 195" fill="none" xmlns="http://www.w3.org/2000/svg">
  <g id="brush">
    <path id="handle"
          d="M81.3 81.28H73.42C66.94 81.28 61.68 76.73 61.68 71.13L66.68 11C66.68 7.06 58 1 53.44 1H41.11C36.56 1 27.87 7 27.87 11L32.87 71.13C32.87 76.73 27.62 81.28 21.14 81.28H13.25C7.59 81.28 3 85.28 3 90.13V103.43C3.10107 104.659 4.16916 105.581 5.4 105.5H89.17C90.4027 105.586 91.4741 104.662 91.57 103.43V90.17C91.55 85.25 86.96 81.28 81.3 81.28ZM52.48 19.81C52.3413 21.7165 50.687 23.1517 48.78 23.02H45.78C43.8749 23.1461 42.224 21.7138 42.08 19.81V13.06C42.2343 11.1642 43.8821 9.74349 45.78 9.87H48.78C50.6797 9.73793 52.3309 11.1615 52.48 13.06V19.81Z"
          fill="white"/>
    <path id="paint"
          d="M94.01 147.32V182.89C94.01 189.346 88.7762 194.58 82.32 194.58H11.68C8.58054 194.58 5.60817 193.348 3.41746 191.155C1.22675 188.963 -0.00264936 185.989 4.28701e-06 182.89V158.95V134.78C4.28701e-06 128.512 5.08157 123.43 11.35 123.43H13C19.2684 123.43 24.35 128.512 24.35 134.78V154.63C24.3555 157.014 26.2864 158.944 28.67 158.95C31.0559 158.95 32.99 157.016 32.99 154.63V128.57C32.99 122.305 38.0655 117.225 44.33 117.22H49.02C52.0302 117.22 54.9171 118.416 57.0457 120.544C59.1742 122.673 60.37 125.56 60.37 128.57V153.47C60.37 154.923 60.9474 156.317 61.9751 157.345C63.0028 158.373 64.3966 158.95 65.85 158.95C68.8742 158.944 71.3245 156.494 71.33 153.47V147.59C71.2724 141.558 75.8783 136.502 81.89 136C85.0277 135.784 88.1144 136.879 90.4138 139.025C92.7132 141.171 94.0191 144.175 94.02 147.32H94.01Z"
          fill="white"/>
    <path id="brush_2"
          d="M11.78 120.92H13.43C21.0863 120.92 27.2945 127.124 27.3 134.78V154.63C27.3704 155.575 28.1575 156.305 29.105 156.305C30.0525 156.305 30.8396 155.575 30.91 154.63V128.57C30.91 120.918 37.1076 114.711 44.76 114.7H49.45C57.104 114.711 63.3045 120.916 63.31 128.57V153.47C63.5355 154.933 64.7946 156.013 66.275 156.013C67.7554 156.013 69.0145 154.933 69.24 153.47V147.59C69.1704 140.23 74.8119 134.073 82.15 133.5C82.47 133.5 82.79 133.5 83.15 133.5C86.197 133.498 89.1585 134.507 91.57 136.37V110.06C91.4741 108.828 90.4027 107.904 89.17 107.99H5.4C4.16916 107.909 3.10107 108.831 3 110.06V124.06C5.47328 122.026 8.57751 120.915 11.78 120.92Z"
          fill="#454FBF"/>
  </g>
</svg>
