<?xml version="1.0" encoding="UTF-8"?>
<svg width="151" height="206" viewBox="0 0 151 206" fill="none" xmlns="http://www.w3.org/2000/svg">
  <g id="roller">
    <rect id="brush" fill="#FFFFFF" x="-1.42108547e-14" y="0" width="124" height="66" rx="12.74"/>
    <path id="linkage" fill="#454FBF"
          d="M143.67,27.91 L139.26,27.91 L139.26,19.58 C139.262668,17.7845858 138.549938,16.0620854 137.279449,14.7934732 C136.00896,13.5248609 134.285408,12.8146783 132.49,12.82 L127.019017,12.82 C126.117084,12.82 126.117084,12.82 126.117084,14.0253822 L126.117084,54.0289542 C126.117084,55.15 126.117084,55.15 127.019017,55.15 L132.49,55.15 C134.285408,55.1553217 136.00896,54.4451391 137.279449,53.1765268 C138.549938,51.9079146 139.262668,50.1854142 139.26,48.39 L139.26,81.39 C139.26,82.6046915 138.777466,83.7696324 137.918549,84.6285491 C137.059632,85.4874657 135.894692,85.97 134.68,85.97 L63.39,85.97 C59.6510322,85.97 56.62,89.0010322 56.62,92.74 L56.62,106.993542 C56.62,108.062516 56.62,108.062516 58.0196698,108.062516 L66.568731,108.062516 C67.8,108.062516 67.8,108.062516 67.8,106.993542 L67.8,101.65 C67.8,99.1481501 69.8281501,97.12 72.33,97.12 L143.66,97.12 C147.398968,97.12 150.43,94.0889678 150.43,90.35 L150.43,34.67 C150.43,30.9365551 147.403445,27.91 143.67,27.91 Z"/>
    <rect id="handle" fill="#FFFFFF" x="44.62" y="110.7" width="35.18" height="95" rx="6.77"/>
  </g>
</svg>
