<?xml version="1.0" encoding="UTF-8"?>
<svg width="1280" height="427" viewBox="0 0 1282 427" fill="none" xmlns="http://www.w3.org/2000/svg">
  <g id="waves">
    <path id="back"
          d="M0 116.272V427H1282V115.5C1271.64 119.146 1261.4 115.451 1246.41 108.844C1228.12 100.779 1201.26 88.9387 1153.36 82.76C1102.24 76.1664 1079.3 79.4559 1052.48 83.3024C1033.57 86.0129 1012.74 89 978.76 89C963.444 89 957.049 85.2855 949.424 80.8571C938.17 74.3211 924.238 66.23 875 66.23C833.077 66.23 789.556 85.5709 746.692 104.62C705.104 123.102 664.133 141.31 625.84 141.31C589.337 141.31 552.291 132.898 512.981 123.973C468.553 113.885 421.231 103.14 368.53 103.14C306.527 103.14 241.146 113.711 192.007 121.656C162.424 126.439 138.728 130.27 125.2 130.27C103.686 130.27 79.9426 122.727 60.8353 116.657C47.9703 112.57 37.2068 109.15 30.64 109.15C20.4909 109.242 9.44472 112.555 0 116.272Z"
          fill="#454FBF"/>
    <path id="front"
          d="M1.39475e-05 427V135.172C8.82909 141.06 19.2307 150.493 28.798 159.085C55.7325 183.274 87.9424 212.2 138.66 212.2C199.825 212.2 246.308 195.594 291.117 179.585C332.813 164.689 373.06 150.31 422.34 150.31C469.61 150.283 508.957 160.844 545.324 170.605C576.536 178.982 605.553 186.77 635.5 186.77C664.336 186.77 705.027 164.394 751.383 138.903C812.735 105.165 884.01 65.97 950.86 65.97C1023.45 65.97 1070.7 86.6942 1106.75 102.506C1128.98 112.257 1146.95 120.14 1163.98 120.14C1189.64 120.14 1201.99 119.192 1212.49 118.386C1220.26 117.789 1227.03 117.27 1237.42 117.27C1261.86 117.27 1282 136.97 1282 136.97V427H1.39475e-05Z"
          fill="#5865F2"/>
  </g>
</svg>
