<?xml version="1.0" encoding="UTF-8"?>
<svg width="1280px" height="427px" viewBox="0 0 1280 427" version="1.1" xmlns="http://www.w3.org/2000/svg" xmlns:xlink="http://www.w3.org/1999/xlink">
    <title>Waves</title>
    <g id="Page-1" stroke="none" stroke-width="1" fill="none" fill-rule="evenodd">
        <g id="Waves" transform="translate(0.000000, 66.200000)" fill-rule="nonzero">
            <path id="back" fill="#454FBF" d="M0,48.71 C9.44472306,44.9939158 19.490927,43.041617 29.64,42.95 C45.96,42.95 88.2,64.07 124.2,64.07 C160.2,64.07 268.2,36.94 367.53,36.94 C466.86,36.94 547.08,75.11 624.84,75.11 C702.6,75.11 791.4,0.03 874,0.03 C956.6,0.03 939.84,22.8 977.76,22.8 C1059.96,22.8 1052.64,16.56 1152.36,16.56 C1245.96,16.56 1280,49.68 1280,49.68 L1280,360.03 L0,360.03 L0,48.71 Z"></path>
            <path id="front" fill="#5865f2" d="M1280,360.03 L0,360.03 L0,75.03 C45,75.03 50,146.23 137.16,146.23 C255.24,146.23 318.6,84.34 420.84,84.34 C508.68,84.29 569.16,120.8 634,120.8 C701,120.8 832,2.84217094e-14 949.36,2.84217094e-14 C1066.72,2.84217094e-14 1117.84,54.17 1162.48,54.17 C1207.12,54.17 1211.48,51.3 1235.92,51.3 C1260.36,51.3 1280,70.68 1280,70.68 L1280,360.03 Z"></path>
        </g>
    </g>
</svg>
