<?xml version="1.0" encoding="UTF-8"?>
<svg width="1280px" height="427px" viewBox="0 0 1280 427" version="1.1" xmlns="http://www.w3.org/2000/svg" xmlns:xlink="http://www.w3.org/1999/xlink">
    <!-- Generator: Sketch 53.2 (72643) - https://sketchapp.com -->
    <title>Banner</title>
    <desc>Created with Sketch.</desc>
    <g id="Page-1" stroke="none" stroke-width="1" fill="none" fill-rule="evenodd">
        <g id="Banner" fill-rule="nonzero">
            <rect id="BG" fill="#23272A" x="0" y="0" width="1280" height="426.23"></rect>
            <path d="M0,114.91 C9.44472306,111.193916 19.490927,109.241617 29.64,109.15 C45.96,109.15 88.2,130.27 124.2,130.27 C160.2,130.27 268.2,103.14 367.53,103.14 C466.86,103.14 547.08,141.31 624.84,141.31 C702.6,141.31 791.4,66.23 874,66.23 C956.6,66.23 939.84,89 977.76,89 C1059.96,89 1052.64,82.76 1152.36,82.76 C1245.96,82.76 1280,115.88 1280,115.88 L1280,426.23 L0,426.23 L0,114.91 Z" id="Dark-wave" fill="#4E5D94"></path>
            <path d="M1280,426.23 L0,426.23 L0,141.23 C45,141.23 50,212.43 137.16,212.43 C255.24,212.43 318.6,150.54 420.84,150.54 C508.68,150.49 569.16,187 634,187 C701,187 832,66.2 949.36,66.2 C1066.72,66.2 1117.84,120.37 1162.48,120.37 C1207.12,120.37 1211.48,117.5 1235.92,117.5 C1260.36,117.5 1280,136.88 1280,136.88 L1280,426.23 Z" id="Blurple-wave" fill="#7289DA"></path>
            <g id="Brush" transform="translate(1124.849996, 158.830000)">
                <path d="M80.8300043,80.28 L72.9500043,80.28 C66.4700043,80.28 61.2100043,75.73 61.2100043,70.13 L66.2100043,10 C66.2100043,6.06 57.5300043,-1.42108547e-14 52.9700043,-1.42108547e-14 L40.6400043,-1.42108547e-14 C36.0900043,-1.42108547e-14 27.4000043,6 27.4000043,10 L32.4000043,70.13 C32.4000043,75.73 27.1500043,80.28 20.6700043,80.28 L12.7800043,80.28 C7.12000429,80.28 2.53000429,84.28 2.53000429,89.13 L2.53000429,102.43 C2.63107007,103.659327 3.69916332,104.580557 4.93000429,104.5 L88.7000043,104.5 C89.9326958,104.586103 91.0041522,103.661972 91.1000043,102.43 L91.1000043,89.17 C91.0800043,84.25 86.4900043,80.28 80.8300043,80.28 Z M52.0100043,18.81 C51.8713247,20.7164577 50.2169543,22.1517358 48.3100043,22.02 L45.3100043,22.02 C43.4049324,22.1461344 41.7539641,20.7138078 41.6100043,18.81 L41.6100043,12.06 C41.7642986,10.1641903 43.4121383,8.74348526 45.3100043,8.87 L48.3100043,8.87 C50.2097207,8.73793419 51.8609281,10.1615427 52.0100043,12.06 L52.0100043,18.81 Z" id="Shape" fill="#FFFFFF"></path>
                <path d="M94.0100043,146.32 L94.0100043,181.89 C94.0100043,188.346209 88.776213,193.58 82.3200043,193.58 L11.6800043,193.58 C8.5805423,193.580001 5.60817212,192.348061 3.41745954,190.155472 C1.22674695,187.962884 -0.00264936196,184.989461 4.28700662e-06,181.89 L4.28700662e-06,157.95 L4.28700662e-06,157.95 L4.28700662e-06,133.78 C4.28700662e-06,127.511568 5.08157238,122.43 11.3500043,122.43 L13.0000043,122.43 C19.2684362,122.43 24.3500043,127.511568 24.3500043,133.78 L24.3500043,153.63 C24.3555028,156.013589 26.2864154,157.944502 28.6700043,157.95 L28.6700043,157.95 C31.0558744,157.95 32.9900043,156.01587 32.9900043,153.63 L32.9900043,127.57 C32.9900019,121.305471 38.065478,116.225519 44.3300043,116.22 L49.0200043,116.22 C52.0302114,116.22 54.9171284,117.4158 57.0456663,119.544338 C59.1742041,121.672876 60.3700043,124.559793 60.3700043,127.57 L60.3700043,152.47 C60.3700043,153.923386 60.9473598,155.317246 61.9750591,156.344945 C63.0027585,157.372645 64.3966179,157.95 65.8500043,157.95 L65.8500043,157.95 C68.8742421,157.944496 71.3245007,155.494238 71.3300043,152.47 L71.3300043,146.59 C71.2723875,140.557636 75.8783252,135.502445 81.8900043,135 C85.0277105,134.783858 88.1144307,135.879382 90.4138294,138.025234 C92.713228,140.171087 94.0191268,143.174858 94.0200043,146.32 L94.0100043,146.32 Z" id="Path" fill="#FFFFFF"></path>
                <path d="M11.3400043,119.92 L12.9900043,119.92 C20.6462902,119.919998 26.8544843,126.123716 26.8600043,133.78 L26.8600043,153.63 C26.9303812,154.574862 27.7175251,155.305557 28.6650043,155.305557 C29.6124834,155.305557 30.3996274,154.574862 30.4700043,153.63 L30.4700043,127.57 C30.4699963,119.917614 36.6676265,113.711034 44.3200043,113.7 L49.0100043,113.7 C56.6640026,113.711027 62.8644978,119.915996 62.8700043,127.57 L62.8700043,152.47 C63.0954827,153.933155 64.3545777,155.013081 65.8350043,155.013081 C67.3154309,155.013081 68.5745259,153.933155 68.8000043,152.47 L68.8000043,146.59 C68.7303704,139.229879 74.3718705,133.072734 81.7100043,132.5 C82.0300043,132.5 82.3500043,132.5 82.7100043,132.5 C85.7570225,132.498015 88.7185198,133.507457 91.1300043,135.37 L91.1300043,109.06 C91.0341522,107.828028 89.9626958,106.903897 88.7300043,106.99 L4.96000429,106.99 C3.72916332,106.909443 2.66107007,107.830673 2.56000429,109.06 L2.56000429,123.06 C5.03327988,121.025584 8.13751783,119.915412 11.3400043,119.92 L11.3400043,119.92 Z" id="Path" fill="#4E5D94"></path>
            </g>
            <g id="Text" transform="translate(469.000000, 222.000000)" fill="#FFFFFF">
                <path d="M0.26,1.63 L21.21,1.63 C34.01,1.63 40.37,10.88 40.37,20.13 C40.37,29.38 33.94,38.7 21.28,38.7 L13.51,38.7 L13.51,54 L0.26,54 L0.26,1.63 Z M21.21,26.94 C29.21,27.01 29.21,13.94 21.21,13.99 L13.51,13.99 L13.51,26.94 L21.21,26.94 Z" id="Shape"></path>
                <path d="M61.76,37.37 L59.39,37.37 L59.39,54 L46,54 L46,1.63 L66.94,1.63 C77.74,1.63 86.11,6.63 86.4,18.87 C86.4,28.56 82.48,34.04 76.12,36.04 L90.4,54.04 L73.9,54.04 L61.76,37.37 Z M67.16,25.97 C70.4737085,25.97 73.16,23.2837085 73.16,19.97 C73.16,16.6562915 70.4737085,13.97 67.16,13.97 L59.39,13.97 L59.39,25.97 L67.16,25.97 Z" id="Shape"></path>
                <path d="M92.1,18.87 C92.1,6.81 102.9,0.87 113.78,0.87 C124.66,0.87 135.54,6.87 135.54,18.87 L135.54,36.78 C135.54,48.78 124.73,54.78 113.86,54.78 C102.99,54.78 92.1,48.78 92.1,36.78 L92.1,18.87 Z M105.34,36.78 C105.34,40.63 109.64,42.48 113.86,42.48 C118.08,42.48 122.29,40.55 122.29,36.78 L122.29,18.87 C122.29,14.8 117.93,12.95 113.63,12.95 C109.49,12.95 105.34,15.02 105.34,18.87 L105.34,36.78 Z" id="Shape"></path>
                <path d="M151.15,36 C151.89,40.22 155.37,41.92 158.62,41.92 C161.87,41.92 164.99,39.92 164.99,36.92 L164.99,13.62 L153.07,13.62 L153.07,1.62 L178.07,1.62 L178.07,36.92 C178.07,48.31 168.07,54.75 158.07,54.75 C149.07,54.75 140.07,49.75 138.6,38.62 L151.15,36 Z" id="Path"></path>
                <polygon id="Path" points="199.4 22.2 220.64 22.2 220.64 33.67 199.4 33.67 199.4 41.52 222.49 41.52 222.49 54 186 54 186 1.63 222.49 1.63 222.49 14.06 199.4 14.06"></polygon>
                <path d="M267.41,43 C263.865196,50.1914728 256.547656,54.749432 248.53,54.76 C238.25,54.76 227.89,48.76 227.89,36.85 L227.89,18.8 C227.89,6.96 238.25,0.89 248.76,0.89 C255.2,0.89 262.97,3.63 267.18,12.95 L256.38,17.32 C252.83,10.8 241.13,12.32 241.13,18.8 L241.13,36.85 C241.13,43.14 252.98,44.92 255.86,37.67 L267.41,43 Z" id="Path"></path>
                <polygon id="Path" points="296.41 14.13 296.41 54 283 54 283 14.13 269.1 14.13 269.1 1.55 310.32 1.55 310.32 14.13"></polygon>
                <path d="M360.05,26.12 C365.476648,28.6861521 368.509451,34.5714296 367.45,40.48 C366.12,48.92 360.45,54.02 348.8,54.02 L327.42,54.02 L327.42,1.63 L348.42,1.63 C358.42,1.63 365.74,7.63 365.42,17.63 C365.180503,21.1858847 363.160261,24.3798992 360.05,26.12 Z M348.43,22.12 C354.87,22.12 355.09,12.79 348.43,12.79 L340.74,12.79 L340.74,22.12 L348.43,22.12 Z M348.43,42.39 C356.43,42.39 356.28,31.66 348.43,31.66 L340.74,31.66 L340.74,42.4 L348.43,42.39 Z" id="Shape"></path>
                <polygon id="Path" points="373.59 1.63 386.91 1.63 386.91 40.92 408.23 40.92 408.23 54 373.59 54"></polygon>
                <path d="M425.84,36.48 C425.84,44.92 440.78,44.92 440.84,36.48 L440.84,1.63 L454.23,1.63 L454.23,36.48 C454.16,61.05 412.35,61.05 412.42,36.48 L412.419912,1.63 L425.82,1.63 L425.84,36.48 Z" id="Path"></path>
                <path d="M477.86,37.37 L475.49,37.37 L475.49,54 L462.09,54 L462.09,1.63 L483,1.63 C493.8,1.63 502.16,6.63 502.46,18.87 C502.46,28.56 498.54,34.04 492.17,36.04 L506.46,54.04 L490,54.04 L477.86,37.37 Z M483.26,25.97 C486.573708,25.97 489.26,23.2837085 489.26,19.97 C489.26,16.6562915 486.573708,13.97 483.26,13.97 L475.49,13.97 L475.49,25.97 L483.26,25.97 Z" id="Shape"></path>
                <path d="M509.9,1.63 L530.84,1.63 C543.64,1.63 550.01,10.88 550.01,20.13 C550.01,29.38 543.57,38.7 530.92,38.7 L523.15,38.7 L523.15,54 L509.9,54 L509.9,1.63 Z M530.84,26.94 C538.84,27.01 538.84,13.94 530.84,13.99 L523.15,13.99 L523.15,26.94 L530.84,26.94 Z" id="Shape"></path>
                <polygon id="Path" points="555.63 1.63 569 1.63 569 40.92 590.31 40.92 590.31 54 555.68 54"></polygon>
                <polygon id="Path" points="608.91 22.2 630.15 22.2 630.15 33.67 608.91 33.67 608.91 41.52 632 41.52 632 54 595.51 54 595.51 1.63 632 1.63 632 14.06 608.91 14.06"></polygon>
                <path d="M239.2,74.65 C238.147138,76.7880279 235.973201,78.1443163 233.59,78.15 C230.53,78.15 227.45,76.36 227.45,72.82 L227.45,67.45 C227.45,63.93 230.53,62.13 233.65,62.13 C236.045602,62.0702308 238.227955,63.4999106 239.13,65.72 L235.92,67 C234.86,65.07 231.39,65.51 231.39,67.44 L231.39,72.81 C231.39,74.68 234.91,75.21 235.77,73.05 L239.2,74.65 Z" id="Path"></path>
                <polygon id="Path" points="244.61 68.47 250.92 68.47 250.92 71.88 244.61 71.88 244.61 74.21 251.47 74.21 251.47 77.93 240.63 77.93 240.63 62.35 251.47 62.35 251.47 66.05 244.61 66.05"></polygon>
                <polygon id="Path" points="253.56 62.35 257.56 62.35 257.56 74 263.9 74 263.9 77.9 253.6 77.9"></polygon>
                <polygon id="Path" points="269.4 68.47 275.72 68.47 275.72 71.88 269.4 71.88 269.4 74.21 276.27 74.21 276.27 77.93 265.42 77.93 265.42 62.35 276.27 62.35 276.27 66.05 269.4 66.05"></polygon>
                <path d="M288.06,69.63 C289.661442,70.4055776 290.558029,72.145772 290.26,73.9 C289.86,76.41 288.17,77.9 284.71,77.9 L278.36,77.9 L278.36,62.35 L284.6,62.35 C287.6,62.35 289.75,64.13 289.66,67.1 C289.59065,68.1602365 288.988178,69.1128956 288.06,69.63 Z M284.6,68.44 C285.122909,68.4844727 285.626288,68.2306478 285.901433,67.783762 C286.176579,67.3368763 286.176579,66.7731237 285.901433,66.326238 C285.626288,65.8793522 285.122909,65.6255273 284.6,65.67 L282.32,65.67 L282.32,68.44 L284.6,68.44 Z M284.6,74.44 C285.199988,74.4875447 285.775899,74.1943632 286.090467,73.6812422 C286.405034,73.1681212 286.405034,72.5218788 286.090467,72.0087578 C285.775899,71.4956368 285.199988,71.2024553 284.6,71.25 L282.32,71.25 L282.32,74.44 L284.6,74.44 Z" id="Shape"></path>
                <path d="M296.77,73 L296.07,73 L296.07,77.95 L292.07,77.95 L292.07,62.35 L298.3,62.35 C301.51,62.35 304,63.82 304.09,67.48 C304.09,70.36 302.92,71.99 301.03,72.58 L305.27,77.93 L300.37,77.93 L296.77,73 Z M298.38,69.61 C299.049612,69.6601542 299.690971,69.3313276 300.0411,68.7583492 C300.39123,68.1853708 300.39123,67.4646292 300.0411,66.8916508 C299.690971,66.3186724 299.049612,65.9898458 298.38,66.04 L296.07,66.04 L296.07,69.61 L298.38,69.61 Z" id="Shape"></path>
                <path d="M319.52,77.93 L315.29,77.93 L314.29,74.8 L310.13,74.8 L309.13,77.93 L304.9,77.93 L310.33,62.35 L314,62.35 L319.52,77.93 Z M313.34,71.3 L312.26,66.75 L312.15,66.75 L311,71.3 L313.34,71.3 Z" id="Shape"></path>
                <polygon id="Path" points="326.07 66.07 326.07 77.93 322.07 77.93 322.07 66.07 318 66.07 318 62.33 330.26 62.33 330.26 66.07"></polygon>
                <polygon id="Path" points="335.69 77.93 331.75 77.93 331.75 62.35 335.69 62.35"></polygon>
                <path d="M338.15,62.35 L341.89,62.35 L345.65,68.99 L346.97,72.12 L347.08,72.12 C347.08,72.12 346.66,69.43 346.64,69.43 L346.64,62.37 L350.56,62.37 L350.56,77.95 L346.56,77.95 L343.04,71.81 L341.67,68.68 L341.56,68.68 L342.07,71.68 L342.07,77.91 L338.13,77.91 L338.15,62.35 Z" id="Path"></path>
                <path d="M360.92,67 C360.06,64.91 356.59,65.39 356.59,67.44 L356.59,72.79 C356.59,75.23 361.14,75.21 361.14,72.79 L361.14,72.21 L358.66,72.21 L358.66,68.91 L364.93,68.91 L364.93,72.79 C364.93,76.37 361.93,78.18 358.81,78.18 C355.69,78.18 352.65,76.37 352.65,72.79 L352.65,67.44 C352.65,63.92 355.73,62.16 358.81,62.16 C361.124766,62.0477259 363.271852,63.3653462 364.22,65.48 L360.92,67 Z" id="Path"></path>
                <path d="M376.58,62.35 C379.71,62.35 382.64,63.93 382.64,67.56 L382.64,72.8 C382.64,76.39 379.71,77.95 376.58,77.93 L370.75,77.93 L370.75,62.35 L376.58,62.35 Z M376.72,74.23 C378.06,74.23 378.67,73.55 378.67,72.54 L378.67,67.67 C378.67,66.67 378.04,66.02 376.72,66.02 L374.72,66.02 L374.72,74.23 L376.72,74.23 Z" id="Shape"></path>
                <polygon id="Path" points="388.68 77.93 384.75 77.93 384.75 62.35 388.68 62.35"></polygon>
                <path d="M392.89,73 C394.45,74.89 397.89,75 397.99,73.31 C397.99,72.43 396.6,71.92 395.33,71.74 C392.82,71.35 390.53,69.74 390.53,66.79 C390.53,63.84 393.3,62.13 396.16,62.13 C398.23547,62.045872 400.222681,62.9742316 401.49,64.62 L398.91,66.62 C397.29,64.88 394.49,64.94 394.43,66.75 C394.43,67.5 395.28,67.94 396.49,68.2 C399.27,68.71 402.04,69.67 401.86,73.5 C401.73,76.5 398.56,78.17 395.7,78.17 C393.592362,78.0999562 391.63567,77.0588488 390.4,75.35 L392.89,73 Z" id="Path"></path>
                <path d="M414.93,74.65 C413.877138,76.7880279 411.703201,78.1443163 409.32,78.15 C406.26,78.15 403.18,76.36 403.18,72.82 L403.18,67.45 C403.18,63.93 406.26,62.13 409.39,62.13 C411.781985,62.0744371 413.959255,63.5033946 414.86,65.72 L411.65,67 C410.65,65.07 407.12,65.51 407.12,67.44 L407.12,72.81 C407.12,74.68 410.64,75.21 411.5,73.05 L414.93,74.65 Z" id="Path"></path>
                <path d="M416,67.48 C416,63.89 419.21,62.13 422.44,62.13 C425.67,62.13 428.91,63.91 428.91,67.48 L428.91,72.8 C428.91,76.36 425.7,78.15 422.46,78.15 C419.22,78.15 416,76.36 416,72.8 L416,67.48 Z M419.93,72.8 C419.93,73.94 421.21,74.49 422.46,74.49 C423.71,74.49 424.97,73.92 424.97,72.8 L424.97,67.48 C424.97,66.27 423.67,65.72 422.4,65.72 C421.13,65.72 419.93,66.33 419.93,67.48 L419.93,72.8 Z" id="Shape"></path>
                <path d="M435.68,73 L435,73 L435,77.95 L431,77.95 L431,62.35 L437.23,62.35 C440.44,62.35 442.92,63.82 443.01,67.48 C443.01,70.36 441.85,71.99 439.95,72.58 L444.2,77.93 L439.29,77.93 L435.68,73 Z M437.28,69.61 C437.949612,69.6601542 438.590971,69.3313276 438.9411,68.7583492 C439.29123,68.1853708 439.29123,67.4646292 438.9411,66.8916508 C438.590971,66.3186724 437.949612,65.9898458 437.28,66.04 L435,66.04 L435,69.61 L437.28,69.61 Z" id="Shape"></path>
                <path d="M451,62.35 C454.13,62.35 457.05,63.93 457.05,67.56 L457.05,72.8 C457.05,76.39 454.13,77.95 451,77.93 L445.2,77.93 L445.2,62.35 L451,62.35 Z M451.13,74.23 C452.48,74.23 453.13,73.55 453.13,72.54 L453.13,67.67 C453.13,66.67 452.49,66.02 451.13,66.02 L449.13,66.02 L449.13,74.23 L451.13,74.23 Z" id="Shape"></path>
                <polygon id="Path" points="462.05 66.93 458.6 66.93 459.87 62.39 464.32 62.39"></polygon>
                <path d="M467.31,73 C468.87,74.89 472.31,75 472.42,73.31 C472.42,72.43 471.03,71.92 469.75,71.74 C467.25,71.35 464.96,69.74 464.96,66.79 C464.96,63.84 467.73,62.13 470.59,62.13 C472.662339,62.0474702 474.645832,62.9758348 475.91,64.62 L473.34,66.62 C471.71,64.88 468.92,64.94 468.85,66.75 C468.85,67.5 469.71,67.94 470.92,68.2 C473.69,68.71 476.47,69.67 476.29,73.5 C476.16,76.5 472.99,78.17 470.13,78.17 C468.022362,78.0999562 466.06567,77.0588488 464.83,75.35 L467.31,73 Z" id="Path"></path>
                <path d="M484.16,73.06 C485.64,74.87 488.16,74.27 488.28,72.45 C488.371312,71.8682919 488.201643,71.2759043 487.81622,70.8307403 C487.430797,70.3855763 486.868788,70.1328769 486.28,70.14 C485.274271,70.1312176 484.328442,70.6172165 483.75,71.44 L481.95,71.44 L481.95,62.35 L491.19,62.35 L491.19,65.8 L485,65.8 L485,67.56 C488.79,66.18 492.09,68.56 492.09,72.36 C492.167372,73.9339642 491.569563,75.4661758 490.446698,76.571854 C489.323833,77.6775321 487.782584,78.2516389 486.21,78.15 C484.18529,78.1319845 482.324428,77.0337709 481.33,75.27 L484.16,73.06 Z" id="Path"></path>
                <polygon id="Path" points="501.08 66.07 501.08 77.93 497.08 77.93 497.08 66.07 493 66.07 493 62.33 505.26 62.33 505.26 66.07"></polygon>
                <polygon id="Path" points="510.72 77.93 506.72 77.93 506.72 62.35 510.72 62.35 510.72 68.25 515.21 68.25 515.21 62.35 519.21 62.35 519.21 77.93 515.21 77.93 515.21 72.05 510.72 72.05"></polygon>
                <path d="M535.34,69.63 C536.941442,70.4055776 537.838029,72.145772 537.54,73.9 C537.14,76.41 535.45,77.9 531.99,77.9 L525.63,77.9 L525.63,62.35 L531.88,62.35 C534.88,62.35 537.03,64.13 536.94,67.1 C536.87065,68.1602365 536.268178,69.1128956 535.34,69.63 L535.34,69.63 Z M531.88,68.44 C532.402909,68.4844727 532.906288,68.2306478 533.181433,67.783762 C533.456579,67.3368763 533.456579,66.7731237 533.181433,66.326238 C532.906288,65.8793522 532.402909,65.6255273 531.88,65.67 L529.59,65.67 L529.59,68.44 L531.88,68.44 Z M531.88,74.44 C532.479988,74.4875447 533.055899,74.1943632 533.370467,73.6812422 C533.685034,73.1681212 533.685034,72.5218788 533.370467,72.0087578 C533.055899,71.4956368 532.479988,71.2024553 531.88,71.25 L529.59,71.25 L529.59,74.44 L531.88,74.44 Z" id="Shape"></path>
                <polygon id="Path" points="543.3 77.93 539.36 77.93 539.36 62.35 543.3 62.35"></polygon>
                <path d="M550.45,73 L549.74,73 L549.74,77.95 L545.74,77.95 L545.74,62.35 L552,62.35 C555.21,62.35 557.7,63.82 557.79,67.48 C557.79,70.36 556.62,71.99 554.73,72.58 L558.97,77.93 L554.07,77.93 L550.45,73 Z M552.06,69.61 C552.729612,69.6601542 553.370971,69.3313276 553.7211,68.7583492 C554.07123,68.1853708 554.07123,67.4646292 553.7211,66.8916508 C553.370971,66.3186724 552.729612,65.9898458 552.06,66.04 L549.74,66.04 L549.74,69.61 L552.06,69.61 Z" id="Shape"></path>
                <polygon id="Path" points="566.88 66.07 566.88 77.93 562.88 77.93 562.88 66.07 558.74 66.07 558.74 62.33 571 62.33 571 66.07"></polygon>
                <polygon id="Path" points="576.52 77.93 572.52 77.93 572.52 62.35 576.52 62.35 576.52 68.25 581 68.25 581 62.35 585 62.35 585 77.93 581 77.93 581 72.05 576.51 72.05"></polygon>
                <path d="M593.26,62.35 C596.39,62.35 599.26,63.93 599.26,67.56 L599.26,72.8 C599.26,76.39 596.34,77.95 593.26,77.93 L587.43,77.93 L587.43,62.35 L593.26,62.35 Z M593.39,74.23 C594.74,74.23 595.39,73.55 595.39,72.54 L595.39,67.67 C595.39,66.67 594.75,66.02 593.39,66.02 L591.39,66.02 L591.39,74.23 L593.39,74.23 Z" id="Shape"></path>
                <path d="M614.23,77.93 L610,77.93 L609,74.8 L604.84,74.8 L603.84,77.93 L599.62,77.93 L605.05,62.35 L608.64,62.35 L614.23,77.93 Z M608.05,71.3 L606.97,66.75 L606.86,66.75 L605.71,71.3 L608.05,71.3 Z" id="Shape"></path>
                <polygon id="Path" points="617.11 77.93 617.11 71.79 611.67 62.35 616.25 62.35 619.07 68.07 621.88 62.35 626.5 62.35 621.05 71.79 621.05 77.93"></polygon>
                <path d="M627.23,62.26 L631.72,62.26 L631.5,73.09 L627.5,73.09 L627.23,62.26 Z M629.5,73.75 C630.285984,73.7499999 631.012264,74.1693175 631.405256,74.8499999 C631.798248,75.5306823 631.798248,76.3693177 631.405256,77.0500001 C631.012264,77.7306825 630.285984,78.1500001 629.5,78.15 C628.284974,78.1499998 627.3,77.1650263 627.3,75.95 C627.3,74.7349737 628.284974,73.7500002 629.5,73.75 L629.5,73.75 Z" id="Shape"></path>
                <path d="M301.64,86.11 L310.41,86.11 C315.78,86.11 318.41,89.98 318.41,93.86 C318.469256,95.9797703 317.637837,98.0274363 316.11759,99.5058767 C314.597343,100.984317 312.527294,101.758328 310.41,101.64 L307.16,101.64 L307.16,108.06 L301.61,108.06 L301.64,86.11 Z M310.41,96.71 C313.76,96.71 313.76,91.25 310.41,91.28 L307.19,91.28 L307.19,96.71 L310.41,96.71 Z" id="Shape"></path>
                <path d="M327.4,101.08 L326.4,101.08 L326.4,108.08 L320.8,108.08 L320.8,86.11 L329.57,86.11 C334.1,86.11 337.57,88.18 337.73,93.33 C337.73,97.39 336.08,99.69 333.42,100.52 L339.42,108.06 L332.51,108.06 L327.4,101.08 Z M329.66,96.31 C330.628669,96.4327728 331.581079,95.9849186 332.104382,95.1605728 C332.627685,94.336227 332.627685,93.283773 332.104382,92.4594272 C331.581079,91.6350814 330.628669,91.1872272 329.66,91.31 L326.41,91.31 L326.41,96.31 L329.66,96.31 Z" id="Shape"></path>
                <path d="M340.11,93.33 C340.11,88.28 344.64,85.8 349.19,85.8 C353.74,85.8 358.31,88.31 358.31,93.33 L358.31,100.83 C358.31,105.83 353.78,108.37 349.23,108.37 C344.68,108.37 340.11,105.86 340.11,100.83 L340.11,93.33 Z M345.66,100.83 C345.66,102.45 347.46,103.22 349.23,103.22 C351,103.22 352.76,102.42 352.76,100.83 L352.76,93.33 C352.76,91.63 350.93,90.85 349.13,90.85 C347.33,90.85 345.66,91.72 345.66,93.33 L345.66,100.83 Z" id="Shape"></path>
                <path d="M364.85,100.52 C365.112421,102.0299 366.470683,103.099262 368,103 C369.36,103 370.67,102.16 370.67,100.89 L370.67,91.12 L365.67,91.12 L365.67,86.12 L376.15,86.12 L376.15,100.9 C376.15,105.67 371.97,108.37 367.78,108.37 C364,108.37 360.25,106.26 359.63,101.61 L364.85,100.52 Z" id="Path"></path>
                <polygon id="Path" points="385.06 94.73 394 94.73 394 99.53 385.1 99.53 385.1 102.82 394.77 102.82 394.77 108.06 379.45 108.06 379.45 86.11 394.73 86.11 394.73 91.32 385.06 91.32"></polygon>
                <path d="M413.55,103.44 C412.062387,106.451115 408.998529,108.360701 405.64,108.37 C401.33,108.37 396.99,105.86 396.99,100.87 L396.99,93.3 C396.99,88.3 401.33,85.8 405.74,85.8 C409.110886,85.7219593 412.180949,87.7302262 413.46,90.85 L408.93,92.68 C407.44,89.95 402.54,90.57 402.54,93.3 L402.54,100.87 C402.54,103.5 407.54,104.25 408.71,101.21 L413.55,103.44 Z" id="Path"></path>
                <polygon id="Path" points="425.7 91.35 425.7 108.06 420.09 108.06 420.09 91.35 414.26 91.35 414.26 86.08 431.53 86.08 431.53 91.35"></polygon>
                <path d="M447.37,96.37 C449.636242,97.444054 450.905241,99.9001797 450.47,102.37 C449.91,105.9 447.53,108.04 442.66,108.04 L433.66,108.04 L433.66,86.11 L442.46,86.11 C446.65,86.11 449.72,88.62 449.59,92.8 C449.497722,94.2876999 448.663473,95.6292619 447.37,96.37 Z M442.5,94.7 C443.298407,94.8722889 444.121354,94.5417685 444.578792,93.8650943 C445.03623,93.1884201 445.03623,92.3015799 444.578792,91.6249057 C444.121354,90.9482315 443.298407,90.6177111 442.5,90.79 L439.28,90.79 L439.28,94.7 L442.5,94.7 Z M442.5,103.19 C443.364028,103.290047 444.208796,102.885362 444.672314,102.149355 C445.135831,101.413349 445.135831,100.476651 444.672314,99.7406445 C444.208796,99.0046382 443.364028,98.5999529 442.5,98.7 L439.28,98.7 L439.28,103.19 L442.5,103.19 Z" id="Shape"></path>
                <polygon id="Path" points="453 86.11 458.58 86.11 458.58 102.57 467.51 102.57 467.51 108.06 453 108.06"></polygon>
                <path d="M474.93,100.71 C474.93,104.25 481.19,104.25 481.22,100.71 L481.22,86.11 L486.83,86.11 L486.83,100.71 C486.83,111 469.28,111 469.32,100.71 L469.319932,86.11 L474.93,86.11 L474.93,100.71 Z" id="Path"></path>
                <path d="M496.72,101.08 L495.72,101.08 L495.72,108.08 L490.11,108.08 L490.11,86.11 L498.88,86.11 C503.41,86.11 506.88,88.18 507.04,93.33 C507.04,97.39 505.39,99.69 502.73,100.52 L508.73,108.06 L501.82,108.06 L496.72,101.08 Z M498.98,96.31 C499.948669,96.4327728 500.901079,95.9849186 501.424382,95.1605728 C501.947685,94.336227 501.947685,93.283773 501.424382,92.4594272 C500.901079,91.6350814 499.948669,91.1872272 498.98,91.31 L495.73,91.31 L495.73,96.31 L498.98,96.31 Z" id="Shape"></path>
                <path d="M510.14,86.11 L518.92,86.11 C524.28,86.11 526.92,89.98 526.92,93.86 C526.979256,95.9797703 526.147837,98.0274363 524.62759,99.5058767 C523.107343,100.984317 521.037294,101.758328 518.92,101.64 L515.66,101.64 L515.66,108.06 L510.11,108.06 L510.14,86.11 Z M518.92,96.71 C522.27,96.71 522.27,91.25 518.92,91.28 L515.69,91.28 L515.69,96.71 L518.92,96.71 Z" id="Shape"></path>
                <polygon id="Path" points="529.3 86.11 534.88 86.11 534.88 102.57 543.81 102.57 543.81 108.06 529.3 108.06"></polygon>
                <polygon id="Path" points="551.62 94.73 560.52 94.73 560.52 99.53 551.62 99.53 551.62 102.82 561.3 102.82 561.3 108.06 546 108.06 546 86.11 561.29 86.11 561.29 91.32 551.61 91.32"></polygon>
                <path d="M566.47,102 C567.729211,101.987872 568.870638,102.738681 569.358137,103.899759 C569.845635,105.060838 569.582325,106.40145 568.691887,107.291887 C567.80145,108.182325 566.460838,108.445635 565.299759,107.958137 C564.138681,107.470638 563.387872,106.329211 563.4,105.07 C563.397332,104.25497 563.719921,103.472553 564.296237,102.896237 C564.872553,102.319921 565.65497,101.997332 566.47,102 L566.47,102 Z" id="Path"></path>
                <path d="M588,103.44 C586.512387,106.451115 583.448529,108.360701 580.09,108.37 C575.78,108.37 571.44,105.86 571.44,100.87 L571.44,93.3 C571.44,88.3 575.78,85.8 580.18,85.8 C583.551705,85.7190858 586.623253,87.728324 587.9,90.85 L583.38,92.68 C581.89,89.95 576.99,90.57 576.99,93.3 L576.99,100.87 C576.99,103.5 581.99,104.25 583.16,101.21 L588,103.44 Z" id="Path"></path>
                <path d="M589.44,93.33 C589.44,88.28 593.97,85.8 598.53,85.8 C603.09,85.8 607.64,88.31 607.64,93.33 L607.64,100.83 C607.64,105.83 603.11,108.37 598.56,108.37 C594.01,108.37 589.44,105.86 589.44,100.83 L589.44,93.33 Z M594.99,100.83 C594.99,102.45 596.79,103.22 598.56,103.22 C600.33,103.22 602.09,102.42 602.09,100.83 L602.09,93.33 C602.09,91.63 600.26,90.85 598.46,90.85 C596.66,90.85 594.99,91.72 594.99,93.33 L594.99,100.83 Z" id="Shape"></path>
                <polygon id="Path" points="610.58 86.11 616.13 86.11 620.75 96.83 625.4 86.11 631 86.11 631 108.06 625.42 108.06 625.42 101.73 625.76 97.3 625.58 97.3 622.7 104.83 618.88 104.83 615.94 97.3 615.78 97.3 616.15 101.73 616.15 108.06 610.6 108.06"></polygon>
            </g>
        </g>
    </g>
</svg>