<svg width="1280" height="427" viewBox="0 0 1280 427" fill="none" xmlns="http://www.w3.org/2000/svg">
<path d="M1280 0H0V426.23H1280V0Z" fill="#23272A"/>
<path d="M0 114.91C9.44472 111.194 19.4909 109.242 29.64 109.15C45.96 109.15 88.2 130.27 124.2 130.27C160.2 130.27 268.2 103.14 367.53 103.14C466.86 103.14 547.08 141.31 624.84 141.31C702.6 141.31 791.4 66.23 874 66.23C956.6 66.23 939.84 89 977.76 89C1059.96 89 1052.64 82.76 1152.36 82.76C1245.96 82.76 1280 115.88 1280 115.88V426.23H0V114.91Z" fill="#4E5D94"/>
<path d="M1280 426.23H0V141.23C45 141.23 50 212.43 137.16 212.43C255.24 212.43 318.6 150.54 420.84 150.54C508.68 150.49 569.16 187 634 187C701 187 832 66.2 949.36 66.2C1066.72 66.2 1117.84 120.37 1162.48 120.37C1207.12 120.37 1211.48 117.5 1235.92 117.5C1260.36 117.5 1280 136.88 1280 136.88V426.23Z" fill="#7289DA"/>
<path d="M1205.68 239.11H1197.8C1191.32 239.11 1186.06 234.56 1186.06 228.96L1191.06 168.83C1191.06 164.89 1182.38 158.83 1177.82 158.83H1165.49C1160.94 158.83 1152.25 164.83 1152.25 168.83L1157.25 228.96C1157.25 234.56 1152 239.11 1145.52 239.11H1137.63C1131.97 239.11 1127.38 243.11 1127.38 247.96V261.26C1127.48 262.489 1128.55 263.411 1129.78 263.33H1213.55C1214.78 263.416 1215.85 262.492 1215.95 261.26V248C1215.93 243.08 1211.34 239.11 1205.68 239.11ZM1176.86 177.64C1176.72 179.546 1175.07 180.982 1173.16 180.85H1170.16C1168.25 180.976 1166.6 179.544 1166.46 177.64V170.89C1166.61 168.994 1168.26 167.574 1170.16 167.7H1173.16C1175.06 167.568 1176.71 168.992 1176.86 170.89V177.64Z" fill="white"/>
<path d="M1218.86 305.15V340.72C1218.86 347.176 1213.63 352.41 1207.17 352.41H1136.53C1133.43 352.41 1130.46 351.178 1128.27 348.985C1126.08 346.793 1124.85 343.819 1124.85 340.72V316.78V292.61C1124.85 286.342 1129.93 281.26 1136.2 281.26H1137.85C1144.12 281.26 1149.2 286.342 1149.2 292.61V312.46C1149.21 314.844 1151.14 316.775 1153.52 316.78C1155.91 316.78 1157.84 314.846 1157.84 312.46V286.4C1157.84 280.135 1162.92 275.056 1169.18 275.05H1173.87C1176.88 275.05 1179.77 276.246 1181.9 278.374C1184.02 280.503 1185.22 283.39 1185.22 286.4V311.3C1185.22 312.753 1185.8 314.147 1186.83 315.175C1187.85 316.203 1189.25 316.78 1190.7 316.78C1193.72 316.775 1196.17 314.324 1196.18 311.3V305.42C1196.12 299.388 1200.73 294.332 1206.74 293.83C1209.88 293.614 1212.96 294.709 1215.26 296.855C1217.56 299.001 1218.87 302.005 1218.87 305.15H1218.86Z" fill="white"/>
<path d="M1136.19 278.75H1137.84C1145.5 278.75 1151.7 284.954 1151.71 292.61V312.46C1151.78 313.405 1152.57 314.136 1153.51 314.136C1154.46 314.136 1155.25 313.405 1155.32 312.46V286.4C1155.32 278.748 1161.52 272.541 1169.17 272.53H1173.86C1181.51 272.541 1187.71 278.746 1187.72 286.4V311.3C1187.95 312.763 1189.2 313.843 1190.68 313.843C1192.17 313.843 1193.42 312.763 1193.65 311.3V305.42C1193.58 298.06 1199.22 291.903 1206.56 291.33C1206.88 291.33 1207.2 291.33 1207.56 291.33C1210.61 291.328 1213.57 292.337 1215.98 294.2V267.89C1215.88 266.658 1214.81 265.734 1213.58 265.82H1129.81C1128.58 265.739 1127.51 266.661 1127.41 267.89V281.89C1129.88 279.856 1132.99 278.745 1136.19 278.75Z" fill="#4E5D94"/>
<path d="M469.26 223.63H490.21C503.01 223.63 509.37 232.88 509.37 242.13C509.37 251.38 502.94 260.7 490.28 260.7H482.51V276H469.26V223.63ZM490.21 248.94C498.21 249.01 498.21 235.94 490.21 235.99H482.51V248.94H490.21Z" fill="white"/>
<path d="M530.76 259.37H528.39V276H515V223.63H535.94C546.74 223.63 555.11 228.63 555.4 240.87C555.4 250.56 551.48 256.04 545.12 258.04L559.4 276.04H542.9L530.76 259.37ZM536.16 247.97C539.474 247.97 542.16 245.284 542.16 241.97C542.16 238.656 539.474 235.97 536.16 235.97H528.39V247.97H536.16Z" fill="white"/>
<path d="M561.1 240.87C561.1 228.81 571.9 222.87 582.78 222.87C593.66 222.87 604.54 228.87 604.54 240.87V258.78C604.54 270.78 593.73 276.78 582.86 276.78C571.99 276.78 561.1 270.78 561.1 258.78V240.87ZM574.34 258.78C574.34 262.63 578.64 264.48 582.86 264.48C587.08 264.48 591.29 262.55 591.29 258.78V240.87C591.29 236.8 586.93 234.95 582.63 234.95C578.49 234.95 574.34 237.02 574.34 240.87V258.78Z" fill="white"/>
<path d="M620.15 258C620.89 262.22 624.37 263.92 627.62 263.92C630.87 263.92 633.99 261.92 633.99 258.92V235.62H622.07V223.62H647.07V258.92C647.07 270.31 637.07 276.75 627.07 276.75C618.07 276.75 609.07 271.75 607.6 260.62L620.15 258Z" fill="white"/>
<path d="M668.4 244.2H689.64V255.67H668.4V263.52H691.49V276H655V223.63H691.49V236.06H668.4V244.2Z" fill="white"/>
<path d="M736.41 265C732.865 272.191 725.548 276.749 717.53 276.76C707.25 276.76 696.89 270.76 696.89 258.85V240.8C696.89 228.96 707.25 222.89 717.76 222.89C724.2 222.89 731.97 225.63 736.18 234.95L725.38 239.32C721.83 232.8 710.13 234.32 710.13 240.8V258.85C710.13 265.14 721.98 266.92 724.86 259.67L736.41 265Z" fill="white"/>
<path d="M765.41 236.13V276H752V236.13H738.1V223.55H779.32V236.13H765.41Z" fill="white"/>
<path d="M829.05 248.12C834.477 250.686 837.509 256.571 836.45 262.48C835.12 270.92 829.45 276.02 817.8 276.02H796.42V223.63H817.42C827.42 223.63 834.74 229.63 834.42 239.63C834.181 243.186 832.16 246.38 829.05 248.12ZM817.43 244.12C823.87 244.12 824.09 234.79 817.43 234.79H809.74V244.12H817.43ZM817.43 264.39C825.43 264.39 825.28 253.66 817.43 253.66H809.74V264.4L817.43 264.39Z" fill="white"/>
<path d="M842.59 223.63H855.91V262.92H877.23V276H842.59V223.63Z" fill="white"/>
<path d="M894.84 258.48C894.84 266.92 909.78 266.92 909.84 258.48V223.63H923.23V258.48C923.16 283.05 881.35 283.05 881.42 258.48L881.42 223.63H894.82L894.84 258.48Z" fill="white"/>
<path d="M946.86 259.37H944.49V276H931.09V223.63H952C962.8 223.63 971.16 228.63 971.46 240.87C971.46 250.56 967.54 256.04 961.17 258.04L975.46 276.04H959L946.86 259.37ZM952.26 247.97C955.574 247.97 958.26 245.284 958.26 241.97C958.26 238.656 955.574 235.97 952.26 235.97H944.49V247.97H952.26Z" fill="white"/>
<path d="M978.9 223.63H999.84C1012.64 223.63 1019.01 232.88 1019.01 242.13C1019.01 251.38 1012.57 260.7 999.92 260.7H992.15V276H978.9V223.63ZM999.84 248.94C1007.84 249.01 1007.84 235.94 999.84 235.99H992.15V248.94H999.84Z" fill="white"/>
<path d="M1024.63 223.63H1038V262.92H1059.31V276H1024.68L1024.63 223.63Z" fill="white"/>
<path d="M1077.91 244.2H1099.15V255.67H1077.91V263.52H1101V276H1064.51V223.63H1101V236.06H1077.91V244.2Z" fill="white"/>
<path d="M751.75 296.525C750.697 298.663 748.523 300.02 746.14 300.025C743.08 300.025 740 298.235 740 294.695V289.325C740 285.805 743.08 284.005 746.2 284.005C748.596 283.945 750.778 285.375 751.68 287.595L748.47 288.875C747.41 286.945 743.94 287.385 743.94 289.315V294.685C743.94 296.555 747.46 297.085 748.32 294.925L751.75 296.525Z" fill="white"/>
<path d="M757.16 290.345H763.47V293.755H757.16V296.085H764.02V299.805H753.18V284.225H764.02V287.925H757.16V290.345Z" fill="white"/>
<path d="M766.11 284.225H770.11V295.875H776.45V299.775H766.15L766.11 284.225Z" fill="white"/>
<path d="M781.95 290.345H788.27V293.755H781.95V296.085H788.82V299.805H777.97V284.225H788.82V287.925H781.95V290.345Z" fill="white"/>
<path d="M800.61 291.505C802.211 292.281 803.108 294.021 802.81 295.775C802.41 298.285 800.72 299.775 797.26 299.775H790.91V284.225H797.15C800.15 284.225 802.3 286.005 802.21 288.975C802.141 290.036 801.538 290.988 800.61 291.505ZM797.15 290.315C797.673 290.36 798.176 290.106 798.451 289.659C798.727 289.212 798.727 288.648 798.451 288.202C798.176 287.755 797.673 287.501 797.15 287.545H794.87V290.315H797.15ZM797.15 296.315C797.75 296.363 798.326 296.07 798.64 295.557C798.955 295.043 798.955 294.397 798.64 293.884C798.326 293.371 797.75 293.078 797.15 293.125H794.87V296.315H797.15Z" fill="white"/>
<path d="M809.32 294.875H808.62V299.825H804.62V284.225H810.85C814.06 284.225 816.55 285.695 816.64 289.355C816.64 292.235 815.47 293.865 813.58 294.455L817.82 299.805H812.92L809.32 294.875ZM810.93 291.485C811.6 291.535 812.241 291.207 812.591 290.634C812.941 290.061 812.941 289.34 812.591 288.767C812.241 288.194 811.6 287.865 810.93 287.915H808.62V291.485H810.93Z" fill="white"/>
<path d="M832.07 299.805H827.84L826.84 296.675H822.68L821.68 299.805H817.45L822.88 284.225H826.55L832.07 299.805ZM825.89 293.175L824.81 288.625H824.7L823.55 293.175H825.89Z" fill="white"/>
<path d="M838.62 287.945V299.805H834.62V287.945H830.55V284.205H842.81V287.945H838.62Z" fill="white"/>
<path d="M848.24 299.805H844.3V284.225H848.24V299.805Z" fill="white"/>
<path d="M850.7 284.225H854.44L858.2 290.865L859.52 293.995H859.63C859.63 293.995 859.21 291.305 859.19 291.305V284.245H863.11V299.825H859.11L855.59 293.685L854.22 290.555H854.11L854.62 293.555V299.785H850.68L850.7 284.225Z" fill="white"/>
<path d="M873.47 288.875C872.61 286.785 869.14 287.265 869.14 289.315V294.665C869.14 297.105 873.69 297.085 873.69 294.665V294.085H871.21V290.785H877.48V294.665C877.48 298.245 874.48 300.055 871.36 300.055C868.24 300.055 865.2 298.245 865.2 294.665V289.315C865.2 285.795 868.28 284.035 871.36 284.035C873.675 283.923 875.822 285.241 876.77 287.355L873.47 288.875Z" fill="white"/>
<path d="M889.13 284.225C892.26 284.225 895.19 285.805 895.19 289.435V294.675C895.19 298.265 892.26 299.825 889.13 299.805H883.3V284.225H889.13ZM889.27 296.105C890.61 296.105 891.22 295.425 891.22 294.415V289.545C891.22 288.545 890.59 287.895 889.27 287.895H887.27V296.105H889.27Z" fill="white"/>
<path d="M901.23 299.805H897.3V284.225H901.23V299.805Z" fill="white"/>
<path d="M905.44 294.875C907 296.765 910.44 296.875 910.54 295.185C910.54 294.305 909.15 293.795 907.88 293.615C905.37 293.225 903.08 291.615 903.08 288.665C903.08 285.715 905.85 284.005 908.71 284.005C910.785 283.921 912.773 284.849 914.04 286.495L911.46 288.495C909.84 286.755 907.04 286.815 906.98 288.625C906.98 289.375 907.83 289.815 909.04 290.075C911.82 290.585 914.59 291.545 914.41 295.375C914.28 298.375 911.11 300.045 908.25 300.045C906.142 299.975 904.186 298.934 902.95 297.225L905.44 294.875Z" fill="white"/>
<path d="M927.48 296.525C926.427 298.663 924.253 300.02 921.87 300.025C918.81 300.025 915.73 298.235 915.73 294.695V289.325C915.73 285.805 918.81 284.005 921.94 284.005C924.332 283.95 926.509 285.379 927.41 287.595L924.2 288.875C923.2 286.945 919.67 287.385 919.67 289.315V294.685C919.67 296.555 923.19 297.085 924.05 294.925L927.48 296.525Z" fill="white"/>
<path d="M928.55 289.355C928.55 285.765 931.76 284.005 934.99 284.005C938.22 284.005 941.46 285.785 941.46 289.355V294.675C941.46 298.235 938.25 300.025 935.01 300.025C931.77 300.025 928.55 298.235 928.55 294.675V289.355ZM932.48 294.675C932.48 295.815 933.76 296.365 935.01 296.365C936.26 296.365 937.52 295.795 937.52 294.675V289.355C937.52 288.145 936.22 287.595 934.95 287.595C933.68 287.595 932.48 288.205 932.48 289.355V294.675Z" fill="white"/>
<path d="M948.23 294.875H947.55V299.825H943.55V284.225H949.78C952.99 284.225 955.47 285.695 955.56 289.355C955.56 292.235 954.4 293.865 952.5 294.455L956.75 299.805H951.84L948.23 294.875ZM949.83 291.485C950.5 291.535 951.141 291.207 951.491 290.634C951.841 290.061 951.841 289.34 951.491 288.767C951.141 288.194 950.5 287.865 949.83 287.915H947.55V291.485H949.83Z" fill="white"/>
<path d="M963.55 284.225C966.68 284.225 969.6 285.805 969.6 289.435V294.675C969.6 298.265 966.68 299.825 963.55 299.805H957.75V284.225H963.55ZM963.68 296.105C965.03 296.105 965.68 295.425 965.68 294.415V289.545C965.68 288.545 965.04 287.895 963.68 287.895H961.68V296.105H963.68Z" fill="white"/>
<path d="M974.6 288.805H971.15L972.42 284.265H976.87L974.6 288.805Z" fill="white"/>
<path d="M979.86 294.875C981.42 296.765 984.86 296.875 984.97 295.185C984.97 294.305 983.58 293.795 982.3 293.615C979.8 293.225 977.51 291.615 977.51 288.665C977.51 285.715 980.28 284.005 983.14 284.005C985.212 283.923 987.196 284.851 988.46 286.495L985.89 288.495C984.26 286.755 981.47 286.815 981.4 288.625C981.4 289.375 982.26 289.815 983.47 290.075C986.24 290.585 989.02 291.545 988.84 295.375C988.71 298.375 985.54 300.045 982.68 300.045C980.572 299.975 978.616 298.934 977.38 297.225L979.86 294.875Z" fill="white"/>
<path d="M1004.34 291.63C1005.94 292.406 1006.84 294.146 1006.54 295.9C1006.14 298.41 1004.45 299.9 1000.99 299.9H994.63V284.35H1000.88C1003.88 284.35 1006.03 286.13 1005.94 289.1C1005.87 290.16 1005.27 291.113 1004.34 291.63ZM1000.88 290.44C1001.4 290.484 1001.91 290.231 1002.18 289.784C1002.46 289.337 1002.46 288.773 1002.18 288.326C1001.91 287.879 1001.4 287.626 1000.88 287.67H998.59V290.44H1000.88ZM1000.88 296.44C1001.48 296.488 1002.06 296.194 1002.37 295.681C1002.69 295.168 1002.69 294.522 1002.37 294.009C1002.06 293.496 1001.48 293.202 1000.88 293.25H998.59V296.44H1000.88Z" fill="white"/>
<path d="M1012.3 299.93H1008.36V284.35H1012.3V299.93Z" fill="white"/>
<path d="M1019.45 295H1018.74V299.95H1014.74V284.35H1021C1024.21 284.35 1026.7 285.82 1026.79 289.48C1026.79 292.36 1025.62 293.99 1023.73 294.58L1027.97 299.93H1023.07L1019.45 295ZM1021.06 291.61C1021.73 291.66 1022.37 291.331 1022.72 290.758C1023.07 290.185 1023.07 289.465 1022.72 288.892C1022.37 288.319 1021.73 287.99 1021.06 288.04H1018.74V291.61H1021.06Z" fill="white"/>
<path d="M1035.88 288.07V299.93H1031.88V288.07H1027.74V284.33H1040V288.07H1035.88Z" fill="white"/>
<path d="M1045.52 299.93H1041.52V284.35H1045.52V290.25H1050V284.35H1054V299.93H1050V294.05H1045.51L1045.52 299.93Z" fill="white"/>
<path d="M1062.26 284.35C1065.39 284.35 1068.26 285.93 1068.26 289.56V294.8C1068.26 298.39 1065.34 299.95 1062.26 299.93H1056.43V284.35H1062.26ZM1062.39 296.23C1063.74 296.23 1064.39 295.55 1064.39 294.54V289.67C1064.39 288.67 1063.75 288.02 1062.39 288.02H1060.39V296.23H1062.39Z" fill="white"/>
<path d="M1083.23 299.93H1079L1078 296.8H1073.84L1072.84 299.93H1068.62L1074.05 284.35H1077.64L1083.23 299.93ZM1077.05 293.3L1075.97 288.75H1075.86L1074.71 293.3H1077.05Z" fill="white"/>
<path d="M1086.11 299.93V293.79L1080.67 284.35H1085.25L1088.07 290.07L1090.88 284.35H1095.5L1090.05 293.79V299.93H1086.11Z" fill="white"/>
<path d="M1096.23 284.26H1100.72L1100.5 295.09H1096.5L1096.23 284.26ZM1098.5 295.75C1099.29 295.75 1100.01 296.169 1100.41 296.85C1100.8 297.531 1100.8 298.369 1100.41 299.05C1100.01 299.731 1099.29 300.15 1098.5 300.15C1097.28 300.15 1096.3 299.165 1096.3 297.95C1096.3 296.735 1097.28 295.75 1098.5 295.75Z" fill="white"/>
<path d="M770.64 308.11H779.41C784.78 308.11 787.41 311.98 787.41 315.86C787.469 317.98 786.638 320.027 785.118 321.506C783.597 322.984 781.527 323.758 779.41 323.64H776.16V330.06H770.61L770.64 308.11ZM779.41 318.71C782.76 318.71 782.76 313.25 779.41 313.28H776.19V318.71H779.41Z" fill="white"/>
<path d="M796.4 323.08H795.4V330.08H789.8V308.11H798.57C803.1 308.11 806.57 310.18 806.73 315.33C806.73 319.39 805.08 321.69 802.42 322.52L808.42 330.06H801.51L796.4 323.08ZM798.66 318.31C799.629 318.433 800.581 317.985 801.104 317.161C801.628 316.336 801.628 315.284 801.104 314.459C800.581 313.635 799.629 313.187 798.66 313.31H795.41V318.31H798.66Z" fill="white"/>
<path d="M809.11 315.33C809.11 310.28 813.64 307.8 818.19 307.8C822.74 307.8 827.31 310.31 827.31 315.33V322.83C827.31 327.83 822.78 330.37 818.23 330.37C813.68 330.37 809.11 327.86 809.11 322.83V315.33ZM814.66 322.83C814.66 324.45 816.46 325.22 818.23 325.22C820 325.22 821.76 324.42 821.76 322.83V315.33C821.76 313.63 819.93 312.85 818.13 312.85C816.33 312.85 814.66 313.72 814.66 315.33V322.83Z" fill="white"/>
<path d="M833.85 322.52C834.112 324.03 835.471 325.099 837 325C838.36 325 839.67 324.16 839.67 322.89V313.12H834.67V308.12H845.15V322.9C845.15 327.67 840.97 330.37 836.78 330.37C833 330.37 829.25 328.26 828.63 323.61L833.85 322.52Z" fill="white"/>
<path d="M854.06 316.73H863V321.53H854.1V324.82H863.77V330.06H848.45V308.11H863.73V313.32H854.06V316.73Z" fill="white"/>
<path d="M882.55 325.44C881.062 328.451 877.999 330.361 874.64 330.37C870.33 330.37 865.99 327.86 865.99 322.87V315.3C865.99 310.3 870.33 307.8 874.74 307.8C878.111 307.722 881.181 309.73 882.46 312.85L877.93 314.68C876.44 311.95 871.54 312.57 871.54 315.3V322.87C871.54 325.5 876.54 326.25 877.71 323.21L882.55 325.44Z" fill="white"/>
<path d="M894.7 313.35V330.06H889.09V313.35H883.26V308.08H900.53V313.35H894.7Z" fill="white"/>
<path d="M916.37 318.37C918.636 319.444 919.905 321.9 919.47 324.37C918.91 327.9 916.53 330.04 911.66 330.04H902.66V308.11H911.46C915.65 308.11 918.72 310.62 918.59 314.8C918.498 316.288 917.663 317.629 916.37 318.37ZM911.5 316.7C912.298 316.872 913.121 316.542 913.579 315.865C914.036 315.188 914.036 314.302 913.579 313.625C913.121 312.948 912.298 312.618 911.5 312.79H908.28V316.7H911.5ZM911.5 325.19C912.364 325.29 913.209 324.885 913.672 324.149C914.136 323.413 914.136 322.477 913.672 321.741C913.209 321.005 912.364 320.6 911.5 320.7H908.28V325.19H911.5Z" fill="white"/>
<path d="M922 308.11H927.58V324.57H936.51V330.06H922V308.11Z" fill="white"/>
<path d="M943.93 322.71C943.93 326.25 950.19 326.25 950.22 322.71V308.11H955.83V322.71C955.83 333 938.28 333 938.32 322.71L938.32 308.11H943.93V322.71Z" fill="white"/>
<path d="M965.72 323.08H964.72V330.08H959.11V308.11H967.88C972.41 308.11 975.88 310.18 976.04 315.33C976.04 319.39 974.39 321.69 971.73 322.52L977.73 330.06H970.82L965.72 323.08ZM967.98 318.31C968.949 318.433 969.901 317.985 970.424 317.161C970.948 316.336 970.948 315.284 970.424 314.459C969.901 313.635 968.949 313.187 967.98 313.31H964.73V318.31H967.98Z" fill="white"/>
<path d="M979.14 308.11H987.92C993.28 308.11 995.92 311.98 995.92 315.86C995.979 317.98 995.148 320.027 993.628 321.506C992.107 322.984 990.037 323.758 987.92 323.64H984.66V330.06H979.11L979.14 308.11ZM987.92 318.71C991.27 318.71 991.27 313.25 987.92 313.28H984.69V318.71H987.92Z" fill="white"/>
<path d="M998.3 308.11H1003.88V324.57H1012.81V330.06H998.3V308.11Z" fill="white"/>
<path d="M1020.62 316.73H1029.52V321.53H1020.62V324.82H1030.3V330.06H1015V308.11H1030.29V313.32H1020.61L1020.62 316.73Z" fill="white"/>
<path d="M1035.47 324C1036.73 323.988 1037.87 324.739 1038.36 325.9C1038.85 327.061 1038.58 328.401 1037.69 329.292C1036.8 330.182 1035.46 330.446 1034.3 329.958C1033.14 329.471 1032.39 328.329 1032.4 327.07C1032.4 326.255 1032.72 325.473 1033.3 324.896C1033.87 324.32 1034.65 323.997 1035.47 324Z" fill="white"/>
<path d="M1057 325.44C1055.51 328.451 1052.45 330.361 1049.09 330.37C1044.78 330.37 1040.44 327.86 1040.44 322.87V315.3C1040.44 310.3 1044.78 307.8 1049.18 307.8C1052.55 307.719 1055.62 309.728 1056.9 312.85L1052.38 314.68C1050.89 311.95 1045.99 312.57 1045.99 315.3V322.87C1045.99 325.5 1050.99 326.25 1052.16 323.21L1057 325.44Z" fill="white"/>
<path d="M1058.44 315.33C1058.44 310.28 1062.97 307.8 1067.53 307.8C1072.09 307.8 1076.64 310.31 1076.64 315.33V322.83C1076.64 327.83 1072.11 330.37 1067.56 330.37C1063.01 330.37 1058.44 327.86 1058.44 322.83V315.33ZM1063.99 322.83C1063.99 324.45 1065.79 325.22 1067.56 325.22C1069.33 325.22 1071.09 324.42 1071.09 322.83V315.33C1071.09 313.63 1069.26 312.85 1067.46 312.85C1065.66 312.85 1063.99 313.72 1063.99 315.33V322.83Z" fill="white"/>
<path d="M1079.58 308.11H1085.13L1089.75 318.83L1094.4 308.11H1100V330.06H1094.42V323.73L1094.76 319.3H1094.58L1091.7 326.83H1087.88L1084.94 319.3H1084.78L1085.15 323.73V330.06H1079.6L1079.58 308.11Z" fill="white"/>
</svg>
