<svg width="4000" height="4000" viewBox="0 0 4000 4000" fill="none" xmlns="http://www.w3.org/2000/svg">
<rect width="4000" height="4000" fill="#5865F2"/>
<path d="M2571.84 1723.91H2439.01C2329.68 1723.91 2241.16 1647.23 2241.16 1552.72L2325.11 538.925C2325.11 472.501 2178.75 371 2101.89 371H1894.15C1817.48 371 1671.02 472.221 1671.02 538.925L1754.98 1552.72C1754.98 1647.23 1666.45 1723.91 1557.31 1723.91H1424.39C1328.87 1723.91 1251.54 1790.71 1251.54 1873.18V2097.08C1251.54 2116.39 1269.73 2132.07 1292.02 2132.07H2704.2C2714.2 2132.73 2724.05 2129.44 2731.63 2122.89C2739.21 2116.34 2743.9 2107.07 2744.69 2097.08V1873.18C2744.69 1791.18 2667.27 1723.91 2571.84 1723.91ZM2086.22 688.378C2086.22 718.325 2058.23 742.394 2023.91 742.394H1972.6C1938.18 742.394 1910.29 718.325 1910.29 688.378V574.096C1910.29 544.336 1938.27 520.173 1972.6 520.173H2023.91C2058.23 520.453 2086.22 544.336 2086.22 574.096V688.378Z" fill="white"/>
<path d="M2793.61 2837.23V3436.93C2793.59 3489.15 2772.82 3539.23 2735.88 3576.15C2698.93 3613.07 2648.84 3633.81 2596.61 3633.81H1405.72C1353.53 3633.76 1303.5 3612.99 1266.61 3576.08C1229.72 3539.16 1209 3489.11 1209 3436.93V3033.18V2625.8C1209 2575.07 1229.16 2526.41 1265.03 2490.54C1300.91 2454.66 1349.57 2434.51 1400.31 2434.51H1428.3C1479 2434.56 1527.62 2454.74 1563.46 2490.6C1599.29 2526.47 1619.42 2575.1 1619.42 2625.8V2960.43C1619.45 2979.74 1627.13 2998.24 1640.79 3011.88C1654.45 3025.52 1672.97 3033.18 1692.27 3033.18V3033.18C1711.57 3033.18 1730.08 3025.52 1743.72 3011.87C1757.37 2998.23 1765.03 2979.73 1765.03 2960.43V2521.15C1765.06 2470.5 1785.17 2421.93 1820.97 2386.09C1856.76 2350.24 1905.31 2330.06 1955.97 2329.96H2034.98C2085.72 2329.96 2134.38 2350.11 2170.26 2385.99C2206.14 2421.86 2226.29 2470.52 2226.29 2521.25V2940.94C2226.32 2965.44 2236.07 2988.92 2253.4 3006.24C2270.73 3023.55 2294.23 3033.27 2318.73 3033.27V3033.27C2343.22 3033.27 2366.71 3023.55 2384.03 3006.23C2401.35 2988.91 2411.08 2965.43 2411.08 2940.94V2841.89C2411.08 2740.51 2488.03 2653.22 2589.14 2646.5C2615.31 2644.69 2641.57 2648.27 2666.28 2657.03C2691 2665.8 2713.66 2679.55 2732.83 2697.44C2752.01 2715.33 2767.3 2736.97 2777.76 2761.02C2788.21 2785.06 2793.61 2811.01 2793.61 2837.23Z" fill="white"/>
<path d="M2659.61 2655.39L2657.48 2654.33L2659.61 2655.39Z" fill="#454FBF"/>
<path d="M2677.69 2661.77L2675.56 2660.71L2677.69 2661.77Z" fill="#454FBF"/>
<path d="M2694.71 2670.28L2692.58 2668.15L2694.71 2670.28Z" fill="#454FBF"/>
<path d="M1400.42 2392.48H1428.41C1490.28 2392.67 1549.55 2417.36 1593.26 2461.12C1636.96 2504.89 1661.54 2564.18 1661.62 2626.02V2960.53C1662.05 2968.31 1665.45 2975.63 1671.11 2980.99C1676.77 2986.34 1684.28 2989.33 1692.08 2989.33C1699.87 2989.33 1707.38 2986.34 1713.04 2980.99C1718.7 2975.63 1722.1 2968.31 1722.53 2960.53V2521.41C1722.58 2459.57 1747.15 2400.27 1790.86 2356.49C1834.58 2312.72 1893.86 2288.04 1955.74 2287.87H2034.76C2096.63 2288.07 2155.9 2312.75 2199.61 2356.52C2243.31 2400.29 2267.89 2459.58 2267.97 2521.41V2940.95C2268.52 2953.84 2274.04 2966.02 2283.37 2974.95C2292.69 2983.87 2305.1 2988.85 2318.01 2988.85C2330.93 2988.85 2343.34 2983.87 2352.66 2974.95C2361.99 2966.02 2367.5 2953.84 2368.06 2940.95V2842.03C2368.06 2716.92 2463.68 2612.59 2585.69 2604.48C2590.98 2604.11 2596.3 2603.92 2601.65 2603.92C2653.02 2603.83 2702.97 2620.82 2743.62 2652.22V2209.56C2743.62 2190.26 2725.53 2174.69 2703.14 2174.69H1292.02C1269.73 2174.69 1251.54 2190.26 1251.54 2209.56V2446.08C1293.4 2411.42 1346.06 2392.46 1400.42 2392.48Z" fill="#454FBF"/>
<path d="M2710.66 2679.85L2708.53 2678.79L2710.66 2679.85Z" fill="#454FBF"/>
<path d="M1640.78 3011.66C1637.24 3008.39 1634.03 3004.83 1631.21 3001.03C1634.03 3004.83 1637.24 3008.39 1640.78 3011.66V3011.66Z" fill="#454FBF"/>
<path d="M1670.56 3029.74C1666.13 3028.4 1661.86 3026.62 1657.79 3024.42C1661.86 3026.62 1666.13 3028.4 1670.56 3029.74V3029.74Z" fill="#454FBF"/>
<path d="M2724.48 2690.49C2724.09 2690.18 2723.74 2689.83 2723.42 2689.42C2723.74 2689.83 2724.09 2690.18 2724.48 2690.49V2690.49Z" fill="#454FBF"/>
</svg>
