<?xml version="1.0" encoding="UTF-8"?>
<svg width="300px" height="300px" viewBox="0 0 300 300" version="1.1" xmlns="http://www.w3.org/2000/svg" xmlns:xlink="http://www.w3.org/1999/xlink">
    <!-- Generator: Sketch 53.2 (72643) - https://sketchapp.com -->
    <title>Favicon</title>
    <desc>Created with Sketch.</desc>
    <g id="Page-1" stroke="none" stroke-width="1" fill="none" fill-rule="evenodd">
        <g id="Favicon">
            <rect id="BG" fill="#7289DA" x="0" y="0" width="300" height="300" rx="5"></rect>
            <g id="Brush" transform="translate(91.000000, 30.000000)" fill-rule="nonzero">
                <path d="M99.88,99.12 L90.14,99.12 C82.14,99.12 75.64,93.5 75.64,86.58 L81.8,12.28 C81.8,7.42 71.08,0 65.44,0 L50.21,0 C44.59,0 33.85,7.42 33.85,12.28 L40,86.58 C40,93.5 33.51,99.12 25.51,99.12 L15.78,99.12 C8.78,99.12 3.12,104.02 3.12,110.06 L3.12,126.49 C3.24219884,128.024996 4.58488968,129.170759 6.12,129.05 L109.62,129.05 C111.15511,129.170759 112.497801,128.024996 112.62,126.49 L112.62,110.07 C112.54,104 106.87,99.12 99.88,99.12 Z M64.27,23.18 C64.27,25.37 62.27,27.18 59.7,27.18 L55.95,27.18 C53.43,27.18 51.38,25.41 51.38,23.18 L51.38,14.84 C51.38,12.66 53.38,10.89 55.95,10.89 L59.7,10.89 C62.22,10.89 64.27,12.66 64.27,14.84 L64.27,23.18 Z" id="Shape" fill="#FFFFFF"></path>
                <path d="M116.16,180.71 L116.16,224.71 C116.15448,232.681086 109.691088,239.140002 101.72,239.14 L14.44,239.14 C10.604253,239.142673 6.92527834,237.618057 4.21581094,234.902961 C1.50634354,232.187864 -0.0106336353,228.505733 -3.37840785e-15,224.67 L-3.37840785e-15,195.08 L-1.77635006e-15,195.08 L-1.77635006e-15,165.22 C-2.72325836e-15,157.488014 6.2680135,151.22 14,151.22 L16,151.22 C23.7319865,151.22 30,157.488014 30,165.22 L30,189.75 C30,192.699201 32.3907994,195.09 35.34,195.09 L35.34,195.09 C38.2892006,195.09 40.68,192.699201 40.68,189.75 L40.68,157.55 C40.68,149.818014 46.9480135,143.55 54.68,143.55 L60.47,143.55 C68.2019865,143.55 74.47,149.818014 74.47,157.55 L74.47,188.31 C74.47,192.048968 77.5010322,195.08 81.24,195.08 L81.24,195.08 C84.9789678,195.08 88.01,192.048968 88.01,188.31 L88.01,181.05 C87.9372015,173.595145 93.630436,167.347856 101.06,166.73 C104.943036,166.451917 108.766517,167.803212 111.612501,170.459463 C114.458485,173.115715 116.069945,176.837032 116.06,180.73 L116.16,180.71 Z" id="Path" fill="#FFFFFF"></path>
                <path d="M14,148.09 L16,148.09 C25.4560689,148.101021 33.1189789,155.763931 33.13,165.22 L33.13,189.75 C33.13,190.981595 34.128405,191.98 35.36,191.98 C36.591595,191.98 37.59,190.981595 37.59,189.75 L37.59,157.55 C37.5955096,148.095549 45.2555537,140.43103 54.71,140.42 L60.5,140.42 C69.9560689,140.431021 77.6189789,148.093931 77.63,157.55 L77.63,188.31 C77.7318829,190.259801 79.342539,191.788493 81.295,191.788493 C83.247461,191.788493 84.8581171,190.259801 84.96,188.31 L84.96,181.05 C84.8858463,171.940566 91.8771079,164.32883 100.96,163.63 C101.35,163.63 101.74,163.63 102.13,163.63 C105.892912,163.626471 109.550659,164.871511 112.53,167.17 L112.53,134.68 C112.407801,133.145004 111.06511,131.999241 109.53,132.12 L6.08,132.12 C4.54488968,131.999241 3.20219884,133.145004 3.08,134.68 L3.08,152 C6.14907075,149.456806 10.0141828,148.072869 14,148.09 Z" id="Path" fill="#4E5D94"></path>
            </g>
        </g>
    </g>
</svg>